EBGaramondVF-GradeMin.ufo
<glyph name="exclam" format="1">
  <advance width="250"/>
  <unicode hex="0021"/>
  <outline>
    <contour>
      <point x="125" y="205"/>
      <point x="128" y="211"/>
      <point x="128" y="219" type="curve"/>
      <point x="128" y="358"/>
      <point x="128" y="498"/>
      <point x="128" y="637" type="curve"/>
      <point x="128" y="643"/>
      <point x="128" y="649"/>
      <point x="123" y="649" type="curve" smooth="yes"/>
      <point x="118" y="649"/>
      <point x="118" y="643"/>
      <point x="118" y="637" type="curve"/>
      <point x="118" y="498"/>
      <point x="118" y="358"/>
      <point x="118" y="219" type="curve"/>
      <point x="118" y="209"/>
      <point x="121" y="205"/>
      <point x="123" y="205" type="curve" smooth="yes"/>
    </contour>
    <contour>
      <point x="140" y="-14"/>
      <point x="150" y="-4"/>
      <point x="150" y="10" type="curve" smooth="yes"/>
      <point x="150" y="27"/>
      <point x="140" y="37"/>
      <point x="123" y="37" type="curve" smooth="yes"/>
      <point x="109" y="37"/>
      <point x="99" y="27"/>
      <point x="99" y="10" type="curve" smooth="yes"/>
      <point x="99" y="-4"/>
      <point x="109" y="-14"/>
      <point x="123" y="-14" type="curve" smooth="yes"/>
    </contour>
  </outline>
</glyph>
<glyph name="dollar" format="1">
  <advance width="441"/>
  <unicode hex="0024"/>
  <outline>
    <contour>
      <point x="171" y="-82" type="curve" smooth="yes"/>
      <point x="174" y="-82"/>
      <point x="177" y="-81"/>
      <point x="177" y="-78" type="curve"/>
      <point x="188" y="9" type="line"/>
      <point x="188" y="12"/>
      <point x="188" y="17"/>
      <point x="193" y="17" type="curve" smooth="yes"/>
      <point x="300" y="12"/>
      <point x="371" y="65"/>
      <point x="371" y="177" type="curve" smooth="yes"/>
      <point x="371" y="263"/>
      <point x="319" y="298"/>
      <point x="243" y="341" type="curve" smooth="yes"/>
      <point x="234" y="345"/>
      <point x="231" y="348"/>
      <point x="232" y="358" type="curve" smooth="yes"/>
      <point x="265" y="614" type="line" smooth="yes"/>
      <point x="265" y="617"/>
      <point x="265" y="619"/>
      <point x="270" y="617" type="curve" smooth="yes"/>
      <point x="306" y="603"/>
      <point x="322" y="565"/>
      <point x="346" y="502" type="curve" smooth="yes"/>
      <point x="349" y="494"/>
      <point x="353" y="488"/>
      <point x="358" y="488" type="curve" smooth="yes"/>
      <point x="361" y="488"/>
      <point x="364" y="491"/>
      <point x="364" y="499" type="curve" smooth="yes"/>
      <point x="364" y="527"/>
      <point x="354" y="563"/>
      <point x="345" y="588" type="curve" smooth="yes"/>
      <point x="342" y="597"/>
      <point x="336" y="607"/>
      <point x="326" y="611" type="curve" smooth="yes"/>
      <point x="311" y="617"/>
      <point x="300" y="625"/>
      <point x="270" y="629" type="curve" smooth="yes"/>
      <point x="269" y="629"/>
      <point x="268" y="630"/>
      <point x="268" y="633" type="curve" smooth="yes"/>
      <point x="271" y="657"/>
      <point x="274" y="682"/>
      <point x="277" y="706" type="curve"/>
      <point x="277" y="708"/>
      <point x="275" y="710"/>
      <point x="274" y="710" type="curve" smooth="yes"/>
      <point x="271" y="710"/>
      <point x="267" y="709"/>
      <point x="267" y="706" type="curve"/>
      <point x="258" y="636" type="line"/>
      <point x="258" y="634"/>
      <point x="255" y="629"/>
      <point x="252" y="629" type="curve" smooth="yes"/>
      <point x="161" y="637"/>
      <point x="91" y="583"/>
      <point x="91" y="489" type="curve" smooth="yes"/>
      <point x="91" y="420"/>
      <point x="145" y="387"/>
      <point x="218" y="345" type="curve" smooth="yes"/>
      <point x="219" y="344"/>
      <point x="221" y="341"/>
      <point x="221" y="339" type="curve" smooth="yes"/>
      <point x="181" y="38" type="line" smooth="yes"/>
      <point x="181" y="36"/>
      <point x="180" y="35"/>
      <point x="178" y="35" type="curve" smooth="yes"/>
      <point x="134" y="48"/>
      <point x="112" y="96"/>
      <point x="89" y="175" type="curve" smooth="yes"/>
      <point x="87" y="182"/>
      <point x="86" y="185"/>
      <point x="82" y="185" type="curve" smooth="yes"/>
      <point x="77" y="185"/>
      <point x="73" y="180"/>
      <point x="73" y="172" type="curve"/>
      <point x="75" y="147"/>
      <point x="77" y="102"/>
      <point x="83" y="78" type="curve" smooth="yes"/>
      <point x="85" y="70"/>
      <point x="90" y="64"/>
      <point x="94" y="60" type="curve"/>
      <point x="118" y="38"/>
      <point x="146" y="24"/>
      <point x="175" y="19" type="curve" smooth="yes"/>
      <point x="177" y="19"/>
      <point x="179" y="17"/>
      <point x="178" y="13" type="curve" smooth="yes"/>
      <point x="167" y="-77" type="line"/>
      <point x="167" y="-80"/>
      <point x="169" y="-82"/>
    </contour>
    <contour>
      <point x="211" y="30" type="curve" smooth="yes"/>
      <point x="201" y="30"/>
      <point x="192" y="31"/>
      <point x="192" y="38" type="curve"/>
      <point x="229" y="331" type="line" smooth="yes"/>
      <point x="230" y="335"/>
      <point x="235" y="334"/>
      <point x="237" y="333" type="curve" smooth="yes"/>
      <point x="311" y="288"/>
      <point x="359" y="259"/>
      <point x="359" y="172" type="curve" smooth="yes"/>
      <point x="359" y="83"/>
      <point x="310" y="30"/>
    </contour>
    <contour>
      <point x="219" y="355" type="curve" smooth="yes"/>
      <point x="161" y="390"/>
      <point x="102" y="433"/>
      <point x="102" y="492" type="curve" smooth="yes"/>
      <point x="102" y="585"/>
      <point x="156" y="622"/>
      <point x="252" y="622" type="curve" smooth="yes"/>
      <point x="255" y="622"/>
      <point x="255" y="619"/>
      <point x="255" y="615" type="curve" smooth="yes"/>
      <point x="223" y="358" type="line"/>
      <point x="223" y="355"/>
      <point x="220" y="354"/>
    </contour>
  </outline>
</glyph>
<glyph name="ampersand" format="1">
  <advance width="756"/>
  <unicode hex="0026"/>
  <outline>
    <contour>
      <point x="305" y="-14"/>
      <point x="357" y="70"/>
      <point x="405" y="123" type="curve"/>
      <point x="424" y="145" type="line"/>
      <point x="441" y="125" type="line" smooth="yes"/>
      <point x="509" y="45"/>
      <point x="540" y="-11"/>
      <point x="615" y="-11" type="curve" smooth="yes"/>
      <point x="657" y="-11"/>
      <point x="706" y="21"/>
      <point x="706" y="33" type="curve" smooth="yes"/>
      <point x="706" y="38"/>
      <point x="706" y="41"/>
      <point x="699" y="41" type="curve" smooth="yes"/>
      <point x="693" y="41"/>
      <point x="687" y="34"/>
      <point x="682" y="31" type="curve" smooth="yes"/>
      <point x="658" y="17"/>
      <point x="643" y="3"/>
      <point x="615" y="3" type="curve" smooth="yes"/>
      <point x="564" y="3"/>
      <point x="527" y="29"/>
      <point x="452" y="129" type="curve" smooth="yes"/>
      <point x="434" y="153" type="line"/>
      <point x="434" y="153"/>
      <point x="596" y="346"/>
      <point x="609" y="357" type="curve" smooth="yes"/>
      <point x="625" y="371"/>
      <point x="648" y="392"/>
      <point x="688" y="392" type="curve" smooth="yes"/>
      <point x="707" y="392"/>
      <point x="713" y="396"/>
      <point x="713" y="402" type="curve" smooth="yes"/>
      <point x="713" y="404"/>
      <point x="705" y="408"/>
      <point x="693" y="408" type="curve" smooth="yes"/>
      <point x="676" y="408"/>
      <point x="646" y="397"/>
      <point x="628" y="397" type="curve" smooth="yes"/>
      <point x="613" y="397"/>
      <point x="577" y="402"/>
      <point x="571" y="402" type="curve" smooth="yes"/>
      <point x="567" y="402"/>
      <point x="549" y="402"/>
      <point x="549" y="397" type="curve" smooth="yes"/>
      <point x="549" y="395"/>
      <point x="552" y="392"/>
      <point x="561" y="392" type="curve" smooth="yes"/>
      <point x="585" y="389"/>
      <point x="608" y="389"/>
      <point x="608" y="378" type="curve" smooth="yes"/>
      <point x="608" y="358"/>
      <point x="509" y="258"/>
      <point x="463" y="204" type="curve" smooth="yes"/>
      <point x="426" y="160" type="line"/>
      <point x="413" y="175" type="line"/>
      <point x="367" y="228"/>
      <point x="321" y="280"/>
      <point x="275" y="333" type="curve" smooth="yes"/>
      <point x="262" y="347" type="line"/>
      <point x="274" y="352" type="line" smooth="yes"/>
      <point x="347" y="382"/>
      <point x="387" y="431"/>
      <point x="386" y="486" type="curve" smooth="yes"/>
      <point x="386" y="536"/>
      <point x="352" y="599"/>
      <point x="283" y="599" type="curve" smooth="yes"/>
      <point x="227" y="599"/>
      <point x="170" y="554"/>
      <point x="170" y="484" type="curve" smooth="yes"/>
      <point x="170" y="433"/>
      <point x="218" y="388"/>
      <point x="234" y="366" type="curve" smooth="yes"/>
      <point x="245" y="351" type="line"/>
      <point x="214" y="338" type="line" smooth="yes"/>
      <point x="116" y="297"/>
      <point x="38" y="233"/>
      <point x="38" y="127" type="curve" smooth="yes"/>
      <point x="38" y="45"/>
      <point x="109" y="-14"/>
      <point x="212" y="-14" type="curve" smooth="yes"/>
    </contour>
    <contour>
      <point x="123" y="-4"/>
      <point x="48" y="51"/>
      <point x="48" y="127" type="curve" smooth="yes"/>
      <point x="48" y="194"/>
      <point x="80" y="274"/>
      <point x="221" y="330" type="curve" smooth="yes"/>
      <point x="251" y="342" type="line"/>
      <point x="266" y="327" type="line" smooth="yes"/>
      <point x="311" y="275"/>
      <point x="357" y="224"/>
      <point x="402" y="172" type="curve"/>
      <point x="419" y="153" type="line"/>
      <point x="396" y="126" type="line" smooth="yes"/>
      <point x="313" y="29"/>
      <point x="271" y="-4"/>
      <point x="210" y="-4" type="curve" smooth="yes"/>
    </contour>
    <contour>
      <point x="242" y="372" type="line" smooth="yes"/>
      <point x="186" y="445"/>
      <point x="181" y="447"/>
      <point x="181" y="493" type="curve" smooth="yes"/>
      <point x="181" y="535"/>
      <point x="229" y="589"/>
      <point x="281" y="589" type="curve" smooth="yes"/>
      <point x="345" y="589"/>
      <point x="375" y="530"/>
      <point x="375" y="489" type="curve" smooth="yes"/>
      <point x="375" y="431"/>
      <point x="336" y="388"/>
      <point x="272" y="362" type="curve" smooth="yes"/>
      <point x="255" y="355" type="line"/>
    </contour>
  </outline>
</glyph>
<glyph name="quotesingle" format="1">
  <advance width="200"/>
  <unicode hex="0027"/>
  <outline>
    <contour>
      <point x="93" y="444"/>
      <point x="96" y="457"/>
      <point x="97" y="469" type="curve" smooth="yes"/>
      <point x="102" y="505"/>
      <point x="111" y="592"/>
      <point x="111" y="644" type="curve" smooth="yes"/>
      <point x="111" y="661"/>
      <point x="110" y="676"/>
      <point x="107" y="676" type="curve" smooth="yes"/>
      <point x="102" y="676"/>
      <point x="99" y="668"/>
      <point x="94" y="655" type="curve"/>
      <point x="92" y="648"/>
      <point x="89" y="634"/>
      <point x="89" y="620" type="curve" smooth="yes"/>
      <point x="89" y="619"/>
      <point x="90" y="560"/>
      <point x="90" y="524" type="curve" smooth="yes"/>
      <point x="90" y="506"/>
      <point x="90" y="488"/>
      <point x="90" y="467" type="curve"/>
      <point x="90" y="458"/>
      <point x="90" y="444"/>
      <point x="92" y="444" type="curve" smooth="yes"/>
    </contour>
  </outline>
</glyph>
<glyph name="parenleft" format="1">
  <advance width="315"/>
  <unicode hex="0028"/>
  <outline>
    <contour>
      <point x="260" y="-211"/>
      <point x="261" y="-210"/>
      <point x="261" y="-208" type="curve" smooth="yes"/>
      <point x="261" y="-205"/>
      <point x="258" y="-200"/>
      <point x="252" y="-192" type="curve" smooth="yes"/>
      <point x="183" y="-109"/>
      <point x="110" y="111"/>
      <point x="110" y="269" type="curve" smooth="yes"/>
      <point x="110" y="451"/>
      <point x="208" y="628"/>
      <point x="252" y="681" type="curve" smooth="yes"/>
      <point x="259" y="689"/>
      <point x="263" y="695"/>
      <point x="263" y="697" type="curve" smooth="yes"/>
      <point x="263" y="699"/>
      <point x="262" y="700"/>
      <point x="260" y="700" type="curve" smooth="yes"/>
      <point x="256" y="700"/>
      <point x="254" y="698"/>
      <point x="245" y="687" type="curve" smooth="yes"/>
      <point x="191" y="621"/>
      <point x="100" y="439"/>
      <point x="100" y="269" type="curve" smooth="yes"/>
      <point x="100" y="99"/>
      <point x="190" y="-136"/>
      <point x="245" y="-200" type="curve" smooth="yes"/>
      <point x="252" y="-208"/>
      <point x="253" y="-211"/>
      <point x="258" y="-211" type="curve" smooth="yes"/>
    </contour>
  </outline>
</glyph>
<glyph name="asterisk" format="1">
  <advance width="340"/>
  <unicode hex="002A"/>
  <outline>
    <contour>
      <point x="188" y="372"/>
      <point x="189" y="374"/>
      <point x="189" y="378" type="curve"/>
      <point x="185" y="422"/>
      <point x="182" y="467"/>
      <point x="178" y="511" type="curve"/>
      <point x="219" y="492"/>
      <point x="259" y="474"/>
      <point x="300" y="455" type="curve"/>
      <point x="301" y="455"/>
      <point x="306" y="455"/>
      <point x="306" y="460" type="curve" smooth="yes"/>
      <point x="306" y="462"/>
      <point x="304" y="463"/>
      <point x="303" y="464" type="curve"/>
      <point x="263" y="483"/>
      <point x="222" y="503"/>
      <point x="182" y="522" type="curve"/>
      <point x="293" y="600" type="line"/>
      <point x="295" y="602"/>
      <point x="295" y="603"/>
      <point x="295" y="604" type="curve" smooth="yes"/>
      <point x="295" y="607"/>
      <point x="293" y="610"/>
      <point x="290" y="610" type="curve" smooth="yes"/>
      <point x="290" y="610"/>
      <point x="288" y="609"/>
      <point x="283" y="606" type="curve" smooth="yes"/>
      <point x="247" y="581"/>
      <point x="210" y="557"/>
      <point x="174" y="532" type="curve"/>
      <point x="161" y="666" type="line" smooth="yes"/>
      <point x="161" y="668"/>
      <point x="160" y="670"/>
      <point x="157" y="670" type="curve" smooth="yes"/>
      <point x="153" y="670"/>
      <point x="152" y="668"/>
      <point x="152" y="664" type="curve"/>
      <point x="156" y="620"/>
      <point x="159" y="575"/>
      <point x="163" y="531" type="curve"/>
      <point x="122" y="550"/>
      <point x="82" y="569"/>
      <point x="41" y="588" type="curve"/>
      <point x="40" y="588"/>
      <point x="35" y="588"/>
      <point x="35" y="583" type="curve" smooth="yes"/>
      <point x="35" y="581"/>
      <point x="37" y="580"/>
      <point x="38" y="579" type="curve"/>
      <point x="78" y="559"/>
      <point x="119" y="540"/>
      <point x="159" y="520" type="curve"/>
      <point x="49" y="443" type="line"/>
      <point x="47" y="441"/>
      <point x="47" y="440"/>
      <point x="47" y="439" type="curve" smooth="yes"/>
      <point x="47" y="436"/>
      <point x="49" y="433"/>
      <point x="52" y="433" type="curve" smooth="yes"/>
      <point x="52" y="433"/>
      <point x="56" y="435"/>
      <point x="57" y="436" type="curve" smooth="yes"/>
      <point x="94" y="461"/>
      <point x="130" y="485"/>
      <point x="167" y="510" type="curve"/>
      <point x="180" y="376" type="line" smooth="yes"/>
      <point x="180" y="374"/>
      <point x="181" y="372"/>
      <point x="184" y="372" type="curve" smooth="yes"/>
    </contour>
  </outline>
</glyph>
<glyph name="plus" format="1">
  <advance width="590"/>
  <unicode hex="002B"/>
  <outline>
    <contour>
      <point x="292" y="-8"/>
      <point x="299" y="-7"/>
      <point x="299" y="1" type="curve" smooth="yes"/>
      <point x="299" y="240" type="line" smooth="yes"/>
      <point x="299" y="241"/>
      <point x="299" y="241"/>
      <point x="299" y="241" type="curve" smooth="yes"/>
      <point x="514" y="241" type="line" smooth="yes"/>
      <point x="533" y="241"/>
      <point x="545" y="246"/>
      <point x="545" y="249" type="curve" smooth="yes"/>
      <point x="545" y="250"/>
      <point x="539" y="251"/>
      <point x="532" y="251" type="curve" smooth="yes"/>
      <point x="299" y="251" type="line" smooth="yes"/>
      <point x="299" y="251"/>
      <point x="299" y="251"/>
      <point x="299" y="252" type="curve" smooth="yes"/>
      <point x="299" y="478" type="line" smooth="yes"/>
      <point x="299" y="480"/>
      <point x="297" y="482"/>
      <point x="296" y="482" type="curve" smooth="yes"/>
      <point x="295" y="482"/>
      <point x="289" y="479"/>
      <point x="289" y="471" type="curve" smooth="yes"/>
      <point x="289" y="252" type="line" smooth="yes"/>
      <point x="289" y="251"/>
      <point x="289" y="251"/>
      <point x="288" y="251" type="curve" smooth="yes"/>
      <point x="69" y="251" type="line" smooth="yes"/>
      <point x="51" y="251"/>
      <point x="45" y="245"/>
      <point x="45" y="243" type="curve" smooth="yes"/>
      <point x="45" y="242"/>
      <point x="52" y="241"/>
      <point x="59" y="241" type="curve" smooth="yes"/>
      <point x="288" y="241" type="line" smooth="yes"/>
      <point x="288" y="241"/>
      <point x="289" y="241"/>
      <point x="289" y="240" type="curve" smooth="yes"/>
      <point x="289" y="-3" type="line" smooth="yes"/>
      <point x="289" y="-6"/>
      <point x="290" y="-8"/>
      <point x="291" y="-8" type="curve" smooth="yes"/>
    </contour>
  </outline>
</glyph>
<glyph name="comma" format="1">
  <advance width="230"/>
  <unicode hex="002C"/>
  <outline>
    <contour>
      <point x="104" y="-166"/>
      <point x="165" y="-128"/>
      <point x="165" y="-62" type="curve" smooth="yes"/>
      <point x="165" y="-5"/>
      <point x="133" y="18"/>
      <point x="93" y="18" type="curve" smooth="yes"/>
      <point x="84" y="18"/>
      <point x="74" y="14"/>
      <point x="74" y="4" type="curve" smooth="yes"/>
      <point x="74" y="-4"/>
      <point x="80" y="-10"/>
      <point x="91" y="-10" type="curve" smooth="yes"/>
      <point x="136" y="-10"/>
      <point x="154" y="-32"/>
      <point x="154" y="-72" type="curve" smooth="yes"/>
      <point x="154" y="-124"/>
      <point x="101" y="-158"/>
      <point x="64" y="-158" type="curve" smooth="yes"/>
      <point x="58" y="-158"/>
      <point x="56" y="-159"/>
      <point x="56" y="-161" type="curve" smooth="yes"/>
      <point x="56" y="-164"/>
      <point x="58" y="-166"/>
      <point x="67" y="-166" type="curve" smooth="yes"/>
    </contour>
  </outline>
</glyph>
<glyph name="hyphen" format="1">
  <advance width="274"/>
  <unicode hex="002D"/>
  <outline>
    <contour>
      <point x="42" y="222" type="curve" smooth="yes"/>
      <point x="107" y="230"/>
      <point x="173" y="237"/>
      <point x="238" y="245" type="curve" smooth="yes"/>
      <point x="243" y="246"/>
      <point x="245" y="251"/>
      <point x="245" y="253" type="curve" smooth="yes"/>
      <point x="245" y="255"/>
      <point x="244" y="255"/>
      <point x="241" y="255" type="curve" smooth="yes"/>
      <point x="178" y="247"/>
      <point x="115" y="239"/>
      <point x="52" y="231" type="curve" smooth="yes"/>
      <point x="42" y="230"/>
      <point x="36" y="227"/>
      <point x="36" y="222" type="curve" smooth="yes"/>
      <point x="36" y="222"/>
      <point x="37" y="221"/>
    </contour>
  </outline>
</glyph>
<glyph name="zero" format="1">
  <advance width="480"/>
  <unicode hex="0030"/>
  <outline>
    <contour>
      <point x="235" y="-14" type="curve" smooth="yes"/>
      <point x="383" y="-14"/>
      <point x="445" y="166"/>
      <point x="445" y="316" type="curve" smooth="yes"/>
      <point x="445" y="461"/>
      <point x="381" y="630"/>
      <point x="245" y="630" type="curve" smooth="yes"/>
      <point x="97" y="630"/>
      <point x="35" y="454"/>
      <point x="35" y="302" type="curve" smooth="yes"/>
      <point x="35" y="154"/>
      <point x="99" y="-14"/>
    </contour>
    <contour>
      <point x="235" y="-4" type="curve" smooth="yes"/>
      <point x="108" y="-4"/>
      <point x="48" y="159"/>
      <point x="48" y="302" type="curve" smooth="yes"/>
      <point x="48" y="449"/>
      <point x="106" y="620"/>
      <point x="245" y="620" type="curve" smooth="yes"/>
      <point x="372" y="620"/>
      <point x="432" y="456"/>
      <point x="432" y="316" type="curve" smooth="yes"/>
      <point x="432" y="170"/>
      <point x="374" y="-4"/>
    </contour>
  </outline>
</glyph>
<glyph name="three" format="1">
  <advance width="480"/>
  <unicode hex="0033"/>
  <outline>
    <contour>
      <point x="165" y="-38" type="curve" smooth="yes"/>
      <point x="297" y="-38"/>
      <point x="409" y="37"/>
      <point x="409" y="187" type="curve" smooth="yes"/>
      <point x="409" y="288"/>
      <point x="326" y="332"/>
      <point x="240" y="332" type="curve" smooth="yes"/>
      <point x="235" y="332"/>
      <point x="235" y="336"/>
      <point x="239" y="338" type="curve" smooth="yes"/>
      <point x="338" y="377"/>
      <point x="366" y="469"/>
      <point x="366" y="516" type="curve" smooth="yes"/>
      <point x="366" y="584"/>
      <point x="308" y="630"/>
      <point x="248" y="630" type="curve" smooth="yes"/>
      <point x="138" y="630"/>
      <point x="86" y="554"/>
      <point x="76" y="513" type="curve" smooth="yes"/>
      <point x="75" y="508"/>
      <point x="78" y="500"/>
      <point x="82" y="500" type="curve" smooth="yes"/>
      <point x="95" y="500"/>
      <point x="108" y="618"/>
      <point x="244" y="618" type="curve" smooth="yes"/>
      <point x="309" y="618"/>
      <point x="354" y="579"/>
      <point x="354" y="507" type="curve" smooth="yes"/>
      <point x="354" y="414"/>
      <point x="277" y="359"/>
      <point x="199" y="328" type="curve" smooth="yes"/>
      <point x="194" y="326"/>
      <point x="189" y="324"/>
      <point x="187" y="318" type="curve" smooth="yes"/>
      <point x="186" y="315"/>
      <point x="191" y="313"/>
      <point x="194" y="314" type="curve" smooth="yes"/>
      <point x="209" y="319"/>
      <point x="222" y="322"/>
      <point x="231" y="322" type="curve" smooth="yes"/>
      <point x="349" y="322"/>
      <point x="399" y="258"/>
      <point x="399" y="182" type="curve" smooth="yes"/>
      <point x="399" y="49"/>
      <point x="291" y="-26"/>
      <point x="188" y="-26" type="curve" smooth="yes"/>
      <point x="133" y="-26"/>
      <point x="101" y="-9"/>
      <point x="76" y="10" type="curve" smooth="yes"/>
      <point x="73" y="12"/>
      <point x="71" y="14"/>
      <point x="68" y="14" type="curve" smooth="yes"/>
      <point x="64" y="14"/>
      <point x="57" y="5"/>
      <point x="57" y="2" type="curve" smooth="yes"/>
      <point x="57" y="-14"/>
      <point x="122" y="-38"/>
    </contour>
  </outline>
</glyph>
<glyph name="five" format="1">
  <advance width="480"/>
  <unicode hex="0035"/>
  <outline>
    <contour>
      <point x="157" y="-38"/>
      <point x="244" y="-17"/>
      <point x="297" y="13" type="curve" smooth="yes"/>
      <point x="364" y="52"/>
      <point x="381" y="118"/>
      <point x="381" y="184" type="curve" smooth="yes"/>
      <point x="381" y="266"/>
      <point x="338" y="324"/>
      <point x="279" y="355" type="curve" smooth="yes"/>
      <point x="245" y="373"/>
      <point x="194" y="396"/>
      <point x="123" y="415" type="curve" smooth="yes"/>
      <point x="108" y="419"/>
      <point x="105" y="431"/>
      <point x="106" y="445" type="curve" smooth="yes"/>
      <point x="108" y="470"/>
      <point x="139" y="579"/>
      <point x="157" y="582" type="curve" smooth="yes"/>
      <point x="187" y="587"/>
      <point x="326" y="614"/>
      <point x="379" y="614" type="curve" smooth="yes"/>
      <point x="384" y="614"/>
      <point x="385" y="616"/>
      <point x="386" y="619" type="curve" smooth="yes"/>
      <point x="387" y="622"/>
      <point x="387" y="622"/>
      <point x="388" y="624" type="curve" smooth="yes"/>
      <point x="390" y="628"/>
      <point x="387" y="628"/>
      <point x="385" y="628" type="curve" smooth="yes"/>
      <point x="295" y="620"/>
      <point x="227" y="608"/>
      <point x="166" y="592" type="curve" smooth="yes"/>
      <point x="149" y="588"/>
      <point x="138" y="580"/>
      <point x="132" y="565" type="curve" smooth="yes"/>
      <point x="112" y="513"/>
      <point x="96" y="468"/>
      <point x="96" y="445" type="curve" smooth="yes"/>
      <point x="96" y="427"/>
      <point x="99" y="418"/>
      <point x="117" y="406" type="curve"/>
      <point x="351" y="346"/>
      <point x="369" y="256"/>
      <point x="369" y="179" type="curve" smooth="yes"/>
      <point x="369" y="93"/>
      <point x="341" y="-7"/>
      <point x="108" y="-26" type="curve" smooth="yes"/>
      <point x="96" y="-27"/>
      <point x="72" y="-29"/>
      <point x="72" y="-33" type="curve" smooth="yes"/>
      <point x="72" y="-36"/>
      <point x="94" y="-38"/>
      <point x="109" y="-38" type="curve" smooth="yes"/>
    </contour>
  </outline>
</glyph>
<glyph name="six" format="1">
  <advance width="480"/>
  <unicode hex="0036"/>
  <outline>
    <contour>
      <point x="229" y="-16" type="curve" smooth="yes"/>
      <point x="334" y="-16"/>
      <point x="391" y="79"/>
      <point x="391" y="163" type="curve" smooth="yes"/>
      <point x="391" y="231"/>
      <point x="355" y="292"/>
      <point x="277" y="292" type="curve" smooth="yes"/>
      <point x="257" y="292"/>
      <point x="234" y="285"/>
      <point x="213" y="275" type="curve" smooth="yes"/>
      <point x="198" y="268"/>
      <point x="184" y="259"/>
      <point x="174" y="252" type="curve" smooth="yes"/>
      <point x="168" y="248"/>
      <point x="165" y="238"/>
      <point x="178" y="246" type="curve" smooth="yes"/>
      <point x="201" y="260"/>
      <point x="228" y="278"/>
      <point x="268" y="278" type="curve" smooth="yes"/>
      <point x="341" y="278"/>
      <point x="378" y="218"/>
      <point x="378" y="154" type="curve" smooth="yes"/>
      <point x="378" y="76"/>
      <point x="326" y="-8"/>
      <point x="230" y="-6" type="curve" smooth="yes"/>
      <point x="170" y="-5"/>
      <point x="80" y="72"/>
      <point x="80" y="214" type="curve" smooth="yes"/>
      <point x="80" y="322"/>
      <point x="139" y="434"/>
      <point x="229" y="518" type="curve" smooth="yes"/>
      <point x="281" y="567"/>
      <point x="342" y="608"/>
      <point x="410" y="631" type="curve" smooth="yes"/>
      <point x="416" y="633"/>
      <point x="423" y="632"/>
      <point x="423" y="638" type="curve" smooth="yes"/>
      <point x="423" y="644"/>
      <point x="413" y="644"/>
      <point x="405" y="641" type="curve" smooth="yes"/>
      <point x="340" y="617"/>
      <point x="276" y="578"/>
      <point x="222" y="528" type="curve" smooth="yes"/>
      <point x="129" y="442"/>
      <point x="65" y="325"/>
      <point x="65" y="210" type="curve" smooth="yes"/>
      <point x="65" y="53"/>
      <point x="150" y="-16"/>
    </contour>
  </outline>
</glyph>
<glyph name="eight" format="1">
  <advance width="480"/>
  <unicode hex="0038"/>
  <outline>
    <contour>
      <point x="243" y="-14" type="curve" smooth="yes"/>
      <point x="306" y="-14"/>
      <point x="397" y="43"/>
      <point x="397" y="147" type="curve" smooth="yes"/>
      <point x="397" y="214"/>
      <point x="347" y="264"/>
      <point x="270" y="313" type="curve" smooth="yes"/>
      <point x="259" y="320"/>
      <point x="249" y="320"/>
      <point x="268" y="334" type="curve" smooth="yes"/>
      <point x="298" y="357"/>
      <point x="322" y="381"/>
      <point x="337" y="399" type="curve" smooth="yes"/>
      <point x="355" y="420"/>
      <point x="379" y="463"/>
      <point x="379" y="504" type="curve" smooth="yes"/>
      <point x="379" y="586"/>
      <point x="315" y="630"/>
      <point x="250" y="630" type="curve" smooth="yes"/>
      <point x="170" y="630"/>
      <point x="101" y="573"/>
      <point x="101" y="500" type="curve" smooth="yes"/>
      <point x="101" y="404"/>
      <point x="157" y="375"/>
      <point x="221" y="328" type="curve" smooth="yes"/>
      <point x="228" y="323"/>
      <point x="223" y="318"/>
      <point x="214" y="313" type="curve" smooth="yes"/>
      <point x="163" y="285"/>
      <point x="86" y="241"/>
      <point x="86" y="141" type="curve" smooth="yes"/>
      <point x="86" y="43"/>
      <point x="167" y="-14"/>
    </contour>
    <contour>
      <point x="245" y="-4" type="curve" smooth="yes"/>
      <point x="151" y="-4"/>
      <point x="99" y="76"/>
      <point x="99" y="152" type="curve" smooth="yes"/>
      <point x="99" y="221"/>
      <point x="165" y="283"/>
      <point x="224" y="311" type="curve" smooth="yes"/>
      <point x="230" y="314"/>
      <point x="235" y="317"/>
      <point x="238" y="317" type="curve" smooth="yes"/>
      <point x="243" y="317"/>
      <point x="247" y="314"/>
      <point x="254" y="310" type="curve" smooth="yes"/>
      <point x="342" y="265"/>
      <point x="384" y="204"/>
      <point x="384" y="141" type="curve" smooth="yes"/>
      <point x="384" y="65"/>
      <point x="318" y="-4"/>
    </contour>
    <contour>
      <point x="251" y="330" type="curve" smooth="yes"/>
      <point x="246" y="326"/>
      <point x="241" y="325"/>
      <point x="235" y="329" type="curve" smooth="yes"/>
      <point x="143" y="396"/>
      <point x="112" y="421"/>
      <point x="112" y="501" type="curve" smooth="yes"/>
      <point x="112" y="570"/>
      <point x="182" y="620"/>
      <point x="248" y="620" type="curve" smooth="yes"/>
      <point x="328" y="620"/>
      <point x="368" y="567"/>
      <point x="368" y="504" type="curve" smooth="yes"/>
      <point x="368" y="435"/>
      <point x="309" y="376"/>
    </contour>
  </outline>
</glyph>
<glyph name="equal" format="1">
  <advance width="566"/>
  <unicode hex="003D"/>
  <outline>
    <contour>
      <point x="64" y="335" type="curve"/>
      <point x="485" y="335" type="line"/>
      <point x="504" y="335"/>
      <point x="516" y="340"/>
      <point x="516" y="343" type="curve" smooth="yes"/>
      <point x="516" y="344"/>
      <point x="510" y="345"/>
      <point x="503" y="345" type="curve"/>
      <point x="74" y="345" type="line"/>
      <point x="56" y="345"/>
      <point x="50" y="339"/>
      <point x="50" y="337" type="curve" smooth="yes"/>
      <point x="50" y="336"/>
      <point x="57" y="335"/>
    </contour>
    <contour>
      <point x="64" y="164" type="curve"/>
      <point x="485" y="164" type="line"/>
      <point x="504" y="164"/>
      <point x="516" y="169"/>
      <point x="516" y="172" type="curve" smooth="yes"/>
      <point x="516" y="173"/>
      <point x="510" y="174"/>
      <point x="503" y="174" type="curve"/>
      <point x="74" y="174" type="line"/>
      <point x="56" y="174"/>
      <point x="50" y="168"/>
      <point x="50" y="166" type="curve" smooth="yes"/>
      <point x="50" y="165"/>
      <point x="57" y="164"/>
    </contour>
  </outline>
</glyph>
<glyph name="question" format="1">
  <advance width="376"/>
  <unicode hex="003F"/>
  <outline>
    <contour>
      <point x="136" y="181"/>
      <point x="136" y="189"/>
      <point x="136" y="210" type="curve" smooth="yes"/>
      <point x="136" y="245"/>
      <point x="141" y="294"/>
      <point x="180" y="320" type="curve" smooth="yes"/>
      <point x="212" y="341"/>
      <point x="222" y="347"/>
      <point x="262" y="369" type="curve" smooth="yes"/>
      <point x="304" y="393"/>
      <point x="309" y="411"/>
      <point x="309" y="449" type="curve" smooth="yes"/>
      <point x="309" y="501"/>
      <point x="280" y="561"/>
      <point x="231" y="604" type="curve" smooth="yes"/>
      <point x="184" y="641"/>
      <point x="136" y="661"/>
      <point x="78" y="661" type="curve" smooth="yes"/>
      <point x="73" y="661"/>
      <point x="70" y="657"/>
      <point x="70" y="654" type="curve" smooth="yes"/>
      <point x="70" y="651"/>
      <point x="73" y="644"/>
      <point x="78" y="644" type="curve" smooth="yes"/>
      <point x="84" y="644"/>
      <point x="89" y="646"/>
      <point x="94" y="648" type="curve" smooth="yes"/>
      <point x="99" y="650"/>
      <point x="105" y="652"/>
      <point x="109" y="652" type="curve" smooth="yes"/>
      <point x="181" y="652"/>
      <point x="299" y="553"/>
      <point x="299" y="450" type="curve" smooth="yes"/>
      <point x="299" y="407"/>
      <point x="295" y="395"/>
      <point x="196" y="343" type="curve" smooth="yes"/>
      <point x="147" y="317"/>
      <point x="128" y="277"/>
      <point x="127" y="233" type="curve" smooth="yes"/>
      <point x="126" y="219"/>
      <point x="127" y="207"/>
      <point x="127" y="199" type="curve" smooth="yes"/>
      <point x="127" y="189"/>
      <point x="130" y="181"/>
      <point x="133" y="181" type="curve" smooth="yes"/>
    </contour>
    <contour>
      <point x="147" y="-14"/>
      <point x="157" y="-4"/>
      <point x="157" y="10" type="curve" smooth="yes"/>
      <point x="157" y="27"/>
      <point x="147" y="37"/>
      <point x="130" y="37" type="curve" smooth="yes"/>
      <point x="116" y="37"/>
      <point x="106" y="27"/>
      <point x="106" y="10" type="curve" smooth="yes"/>
      <point x="106" y="-4"/>
      <point x="116" y="-14"/>
      <point x="130" y="-14" type="curve" smooth="yes"/>
    </contour>
  </outline>
</glyph>
<glyph name="at" format="1">
  <advance width="749"/>
  <unicode hex="0040"/>
  <outline>
    <contour>
      <point x="379" y="-131" type="curve" smooth="yes"/>
      <point x="460" y="-131"/>
      <point x="548" y="-97"/>
      <point x="602" y="-40" type="curve" smooth="yes"/>
      <point x="608" y="-34"/>
      <point x="611" y="-25"/>
      <point x="605" y="-25" type="curve"/>
      <point x="602" y="-25"/>
      <point x="596" y="-30"/>
      <point x="591" y="-36" type="curve" smooth="yes"/>
      <point x="549" y="-90"/>
      <point x="446" y="-121"/>
      <point x="380" y="-121" type="curve" smooth="yes"/>
      <point x="175" y="-121"/>
      <point x="77" y="26"/>
      <point x="77" y="177" type="curve" smooth="yes"/>
      <point x="77" y="386"/>
      <point x="250" y="496"/>
      <point x="408" y="496" type="curve" smooth="yes"/>
      <point x="543" y="496"/>
      <point x="667" y="412"/>
      <point x="667" y="236" type="curve" smooth="yes"/>
      <point x="667" y="141"/>
      <point x="611" y="57"/>
      <point x="488" y="57" type="curve" smooth="yes"/>
      <point x="475" y="57"/>
      <point x="471" y="71"/>
      <point x="471" y="86" type="curve" smooth="yes"/>
      <point x="471" y="95"/>
      <point x="473" y="104"/>
      <point x="474" y="113" type="curve"/>
      <point x="502" y="272" type="line" smooth="yes"/>
      <point x="505" y="288"/>
      <point x="515" y="328"/>
      <point x="523" y="352" type="curve"/>
      <point x="526" y="356"/>
      <point x="521" y="357"/>
      <point x="517" y="357" type="curve" smooth="yes"/>
      <point x="508" y="357"/>
      <point x="513" y="335"/>
      <point x="503" y="335" type="curve" smooth="yes"/>
      <point x="500" y="335"/>
      <point x="485" y="340"/>
      <point x="473" y="345" type="curve" smooth="yes"/>
      <point x="463" y="349"/>
      <point x="435" y="355"/>
      <point x="419" y="355" type="curve" smooth="yes"/>
      <point x="306" y="355"/>
      <point x="241" y="248"/>
      <point x="241" y="160" type="curve" smooth="yes"/>
      <point x="241" y="99"/>
      <point x="273" y="47"/>
      <point x="342" y="47" type="curve" smooth="yes"/>
      <point x="401" y="47"/>
      <point x="454" y="108"/>
      <point x="463" y="108" type="curve" smooth="yes"/>
      <point x="466" y="108"/>
      <point x="454" y="47"/>
      <point x="483" y="47" type="curve" smooth="yes"/>
      <point x="615" y="47"/>
      <point x="676" y="137"/>
      <point x="676" y="237" type="curve" smooth="yes"/>
      <point x="676" y="418"/>
      <point x="548" y="505"/>
      <point x="408" y="506" type="curve" smooth="yes"/>
      <point x="244" y="508"/>
      <point x="66" y="391"/>
      <point x="66" y="174" type="curve" smooth="yes"/>
      <point x="66" y="19"/>
      <point x="169" y="-131"/>
    </contour>
    <contour>
      <point x="345" y="57" type="curve" smooth="yes"/>
      <point x="280" y="57"/>
      <point x="251" y="106"/>
      <point x="251" y="164" type="curve" smooth="yes"/>
      <point x="251" y="247"/>
      <point x="311" y="347"/>
      <point x="412" y="347" type="curve" smooth="yes"/>
      <point x="462" y="347"/>
      <point x="492" y="332"/>
      <point x="499" y="310" type="curve" smooth="yes"/>
      <point x="500" y="307"/>
      <point x="500" y="303"/>
      <point x="499" y="299" type="curve" smooth="yes"/>
      <point x="469" y="145" type="line" smooth="yes"/>
      <point x="465" y="121"/>
      <point x="437" y="97"/>
      <point x="412" y="81" type="curve" smooth="yes"/>
      <point x="394" y="70"/>
      <point x="364" y="57"/>
    </contour>
  </outline>
</glyph>
<glyph name="A" format="1">
  <advance width="692"/>
  <unicode hex="0041"/>
  <outline>
    <contour>
      <point x="38" y="-5" type="curve" smooth="yes"/>
      <point x="63" y="-5"/>
      <point x="95" y="-3"/>
      <point x="128" y="-3" type="curve" smooth="yes"/>
      <point x="156" y="-3"/>
      <point x="182" y="-4"/>
      <point x="196" y="-4" type="curve" smooth="yes"/>
      <point x="209" y="-4"/>
      <point x="218" y="-3"/>
      <point x="218" y="0" type="curve" smooth="yes"/>
      <point x="218" y="3"/>
      <point x="209" y="6"/>
      <point x="193" y="7" type="curve" smooth="yes"/>
      <point x="133" y="11"/>
      <point x="125" y="19"/>
      <point x="125" y="39" type="curve" smooth="yes"/>
      <point x="125" y="69"/>
      <point x="187" y="213"/>
      <point x="198" y="239" type="curve" smooth="yes"/>
      <point x="204" y="253"/>
      <point x="209" y="257"/>
      <point x="215" y="257" type="curve" smooth="yes"/>
      <point x="447" y="257" type="line" smooth="yes"/>
      <point x="465" y="257"/>
      <point x="471" y="256"/>
      <point x="474" y="246" type="curve" smooth="yes"/>
      <point x="489" y="196"/>
      <point x="534" y="95"/>
      <point x="534" y="51" type="curve" smooth="yes"/>
      <point x="534" y="24"/>
      <point x="521" y="18"/>
      <point x="468" y="14" type="curve" smooth="yes"/>
      <point x="450" y="13"/>
      <point x="435" y="10"/>
      <point x="435" y="5" type="curve" smooth="yes"/>
      <point x="435" y="2"/>
      <point x="444" y="0"/>
      <point x="456" y="0" type="curve" smooth="yes"/>
      <point x="472" y="0"/>
      <point x="502" y="1"/>
      <point x="529" y="1" type="curve" smooth="yes"/>
      <point x="560" y="1"/>
      <point x="607" y="-5"/>
      <point x="626" y="-5" type="curve" smooth="yes"/>
      <point x="638" y="-5"/>
      <point x="646" y="-4"/>
      <point x="646" y="-2" type="curve" smooth="yes"/>
      <point x="646" y="2"/>
      <point x="637" y="3"/>
      <point x="619" y="6" type="curve" smooth="yes"/>
      <point x="571" y="14"/>
      <point x="568" y="20"/>
      <point x="542" y="87" type="curve" smooth="yes"/>
      <point x="490" y="223"/>
      <point x="411" y="459"/>
      <point x="348" y="662" type="curve"/>
      <point x="347" y="670"/>
      <point x="346" y="678"/>
      <point x="345" y="684" type="curve"/>
      <point x="345" y="686"/>
      <point x="344" y="686"/>
      <point x="343" y="685" type="curve"/>
      <point x="342" y="679"/>
      <point x="340" y="659"/>
      <point x="336" y="651" type="curve" smooth="yes"/>
      <point x="332" y="643"/>
      <point x="326" y="640"/>
      <point x="322" y="636" type="curve"/>
      <point x="321" y="615"/>
      <point x="323" y="597"/>
      <point x="316" y="578" type="curve" smooth="yes"/>
      <point x="250" y="393"/>
      <point x="194" y="253"/>
      <point x="125" y="82" type="curve" smooth="yes"/>
      <point x="101" y="23"/>
      <point x="91" y="10"/>
      <point x="50" y="7" type="curve" smooth="yes"/>
      <point x="29" y="6"/>
      <point x="17" y="2"/>
      <point x="17" y="-1" type="curve" smooth="yes"/>
      <point x="17" y="-3"/>
      <point x="26" y="-5"/>
    </contour>
    <contour>
      <point x="235" y="267" type="line" smooth="yes"/>
      <point x="222" y="267"/>
      <point x="214" y="267"/>
      <point x="214" y="274" type="curve" smooth="yes"/>
      <point x="214" y="276"/>
      <point x="215" y="279"/>
      <point x="216" y="282" type="curve"/>
      <point x="338" y="609" type="line" smooth="yes"/>
      <point x="342" y="620"/>
      <point x="344" y="626"/>
      <point x="346" y="626" type="curve" smooth="yes"/>
      <point x="349" y="626"/>
      <point x="351" y="620"/>
      <point x="355" y="608" type="curve" smooth="yes"/>
      <point x="460" y="282" type="line"/>
      <point x="461" y="278"/>
      <point x="462" y="274"/>
      <point x="462" y="272" type="curve" smooth="yes"/>
      <point x="462" y="267"/>
      <point x="458" y="267"/>
      <point x="448" y="267" type="curve" smooth="yes"/>
    </contour>
  </outline>
</glyph>
<glyph name="B" format="1">
  <advance width="587"/>
  <unicode hex="0042"/>
  <outline>
    <contour>
      <point x="70" y="-5" type="curve" smooth="yes"/>
      <point x="114" y="-5"/>
      <point x="120" y="0"/>
      <point x="166" y="0" type="curve" smooth="yes"/>
      <point x="201" y="0"/>
      <point x="234" y="-4"/>
      <point x="250" y="-4" type="curve" smooth="yes"/>
      <point x="319" y="-4"/>
      <point x="378" y="10"/>
      <point x="421" y="38" type="curve" smooth="yes"/>
      <point x="466" y="69"/>
      <point x="493" y="115"/>
      <point x="493" y="181" type="curve" smooth="yes"/>
      <point x="493" y="287"/>
      <point x="410" y="334"/>
      <point x="314" y="345" type="curve" smooth="yes"/>
      <point x="306" y="346"/>
      <point x="307" y="354"/>
      <point x="314" y="355" type="curve" smooth="yes"/>
      <point x="349" y="361"/>
      <point x="383" y="372"/>
      <point x="410" y="392" type="curve" smooth="yes"/>
      <point x="440" y="415"/>
      <point x="460" y="448"/>
      <point x="460" y="500" type="curve" smooth="yes"/>
      <point x="460" y="600"/>
      <point x="390" y="657"/>
      <point x="260" y="657" type="curve" smooth="yes"/>
      <point x="209" y="657"/>
      <point x="196" y="652"/>
      <point x="163" y="652" type="curve" smooth="yes"/>
      <point x="122" y="652"/>
      <point x="125" y="653"/>
      <point x="78" y="653" type="curve" smooth="yes"/>
      <point x="63" y="653"/>
      <point x="52" y="652"/>
      <point x="52" y="649" type="curve" smooth="yes"/>
      <point x="52" y="646"/>
      <point x="61" y="643"/>
      <point x="82" y="642" type="curve" smooth="yes"/>
      <point x="130" y="640"/>
      <point x="142" y="635"/>
      <point x="142" y="580" type="curve" smooth="yes"/>
      <point x="142" y="82" type="line" smooth="yes"/>
      <point x="142" y="14"/>
      <point x="137" y="10"/>
      <point x="74" y="6" type="curve" smooth="yes"/>
      <point x="58" y="5"/>
      <point x="49" y="3"/>
      <point x="49" y="-1" type="curve" smooth="yes"/>
      <point x="49" y="-4"/>
      <point x="60" y="-5"/>
    </contour>
    <contour>
      <point x="260" y="7" type="curve" smooth="yes"/>
      <point x="175" y="7"/>
      <point x="154" y="15"/>
      <point x="154" y="85" type="curve" smooth="yes"/>
      <point x="154" y="290" type="line" smooth="yes"/>
      <point x="154" y="339"/>
      <point x="159" y="344"/>
      <point x="231" y="344" type="curve" smooth="yes"/>
      <point x="294" y="344"/>
      <point x="349" y="335"/>
      <point x="392" y="315" type="curve" smooth="yes"/>
      <point x="449" y="288"/>
      <point x="483" y="243"/>
      <point x="483" y="174" type="curve" smooth="yes"/>
      <point x="483" y="74"/>
      <point x="391" y="7"/>
    </contour>
    <contour>
      <point x="218" y="353" type="curve" smooth="yes"/>
      <point x="158" y="353"/>
      <point x="154" y="359"/>
      <point x="154" y="398" type="curve" smooth="yes"/>
      <point x="154" y="576" type="line" smooth="yes"/>
      <point x="154" y="638"/>
      <point x="162" y="647"/>
      <point x="268" y="647" type="curve" smooth="yes"/>
      <point x="417" y="647"/>
      <point x="449" y="560"/>
      <point x="449" y="496" type="curve" smooth="yes"/>
      <point x="449" y="450"/>
      <point x="429" y="417"/>
      <point x="396" y="394" type="curve" smooth="yes"/>
      <point x="353" y="365"/>
      <point x="288" y="353"/>
    </contour>
  </outline>
</glyph>
<glyph name="D" format="1">
  <advance width="754"/>
  <unicode hex="0044"/>
  <outline>
    <contour>
      <point x="363" y="-7" type="curve" smooth="yes"/>
      <point x="529" y="-7"/>
      <point x="666" y="150"/>
      <point x="666" y="342" type="curve" smooth="yes"/>
      <point x="666" y="517"/>
      <point x="572" y="659"/>
      <point x="335" y="659" type="curve" smooth="yes"/>
      <point x="312" y="659"/>
      <point x="224" y="651"/>
      <point x="186" y="651" type="curve" smooth="yes"/>
      <point x="144" y="651"/>
      <point x="134" y="653"/>
      <point x="90" y="653" type="curve" smooth="yes"/>
      <point x="74" y="653"/>
      <point x="64" y="652"/>
      <point x="64" y="648" type="curve" smooth="yes"/>
      <point x="64" y="643"/>
      <point x="72" y="641"/>
      <point x="91" y="639" type="curve" smooth="yes"/>
      <point x="134" y="635"/>
      <point x="148" y="627"/>
      <point x="148" y="588" type="curve" smooth="yes"/>
      <point x="148" y="67" type="line" smooth="yes"/>
      <point x="148" y="22"/>
      <point x="131" y="13"/>
      <point x="81" y="9" type="curve" smooth="yes"/>
      <point x="58" y="7"/>
      <point x="48" y="8"/>
      <point x="48" y="3" type="curve" smooth="yes"/>
      <point x="48" y="-4"/>
      <point x="58" y="-5"/>
      <point x="74" y="-5" type="curve" smooth="yes"/>
      <point x="120" y="-5"/>
      <point x="146" y="0"/>
      <point x="181" y="0" type="curve" smooth="yes"/>
      <point x="250" y="0"/>
      <point x="345" y="-7"/>
    </contour>
    <contour>
      <point x="338" y="6" type="curve" smooth="yes"/>
      <point x="160" y="6"/>
      <point x="160" y="11"/>
      <point x="160" y="78" type="curve" smooth="yes"/>
      <point x="160" y="581" type="line" smooth="yes"/>
      <point x="160" y="644"/>
      <point x="184" y="646"/>
      <point x="321" y="646" type="curve" smooth="yes"/>
      <point x="521" y="646"/>
      <point x="653" y="553"/>
      <point x="653" y="325" type="curve" smooth="yes"/>
      <point x="653" y="141"/>
      <point x="523" y="6"/>
    </contour>
  </outline>
</glyph>
<glyph name="E" format="1">
  <advance width="564"/>
  <unicode hex="0045"/>
  <outline>
    <contour>
      <point x="91" y="-5" type="curve" smooth="yes"/>
      <point x="142" y="-5"/>
      <point x="157" y="1"/>
      <point x="199" y="1" type="curve" smooth="yes"/>
      <point x="292" y="1"/>
      <point x="372" y="-5"/>
      <point x="492" y="-5" type="curve" smooth="yes"/>
      <point x="499" y="-5"/>
      <point x="501" y="3"/>
      <point x="505" y="12" type="curve" smooth="yes"/>
      <point x="517" y="39"/>
      <point x="536" y="110"/>
      <point x="536" y="128" type="curve" smooth="yes"/>
      <point x="536" y="136"/>
      <point x="534" y="141"/>
      <point x="531" y="142" type="curve" smooth="yes"/>
      <point x="528" y="143"/>
      <point x="525" y="137"/>
      <point x="524" y="129" type="curve" smooth="yes"/>
      <point x="520" y="95"/>
      <point x="504" y="69"/>
      <point x="493" y="49" type="curve" smooth="yes"/>
      <point x="479" y="23"/>
      <point x="459" y="10"/>
      <point x="424" y="10" type="curve" smooth="yes"/>
      <point x="249" y="10" type="line" smooth="yes"/>
      <point x="204" y="10"/>
      <point x="183" y="25"/>
      <point x="183" y="72" type="curve" smooth="yes"/>
      <point x="183" y="306" type="line" smooth="yes"/>
      <point x="183" y="329"/>
      <point x="194" y="332"/>
      <point x="217" y="332" type="curve" smooth="yes"/>
      <point x="386" y="332" type="line" smooth="yes"/>
      <point x="401" y="332"/>
      <point x="409" y="306"/>
      <point x="413" y="275" type="curve" smooth="yes"/>
      <point x="416" y="254"/>
      <point x="418" y="243"/>
      <point x="422" y="243" type="curve" smooth="yes"/>
      <point x="425" y="243"/>
      <point x="425" y="251"/>
      <point x="425" y="260" type="curve" smooth="yes"/>
      <point x="425" y="268"/>
      <point x="424" y="317"/>
      <point x="424" y="337" type="curve" smooth="yes"/>
      <point x="424" y="353"/>
      <point x="426" y="398"/>
      <point x="426" y="407" type="curve" smooth="yes"/>
      <point x="426" y="417"/>
      <point x="423" y="423"/>
      <point x="422" y="423" type="curve" smooth="yes"/>
      <point x="418" y="423"/>
      <point x="416" y="416"/>
      <point x="415" y="401" type="curve" smooth="yes"/>
      <point x="413" y="364"/>
      <point x="406" y="342"/>
      <point x="384" y="342" type="curve" smooth="yes"/>
      <point x="201" y="342" type="line" smooth="yes"/>
      <point x="191" y="342"/>
      <point x="183" y="352"/>
      <point x="183" y="364" type="curve" smooth="yes"/>
      <point x="183" y="586" type="line" smooth="yes"/>
      <point x="183" y="630"/>
      <point x="200" y="640"/>
      <point x="239" y="640" type="curve" smooth="yes"/>
      <point x="407" y="640" type="line" smooth="yes"/>
      <point x="436" y="640"/>
      <point x="453" y="632"/>
      <point x="467" y="605" type="curve" smooth="yes"/>
      <point x="477" y="585"/>
      <point x="481" y="559"/>
      <point x="488" y="536" type="curve" smooth="yes"/>
      <point x="490" y="529"/>
      <point x="490" y="526"/>
      <point x="495" y="526" type="curve" smooth="yes"/>
      <point x="499" y="526"/>
      <point x="502" y="529"/>
      <point x="502" y="541" type="curve" smooth="yes"/>
      <point x="502" y="568"/>
      <point x="497" y="606"/>
      <point x="487" y="644" type="curve"/>
      <point x="486" y="651"/>
      <point x="477" y="653"/>
      <point x="470" y="653" type="curve" smooth="yes"/>
      <point x="465" y="653"/>
      <point x="433" y="652"/>
      <point x="391" y="651" type="curve" smooth="yes"/>
      <point x="351" y="650"/>
      <point x="304" y="650"/>
      <point x="264" y="650" type="curve" smooth="yes"/>
      <point x="198" y="650"/>
      <point x="168" y="653"/>
      <point x="98" y="653" type="curve" smooth="yes"/>
      <point x="82" y="653"/>
      <point x="71" y="652"/>
      <point x="71" y="647" type="curve" smooth="yes"/>
      <point x="71" y="643"/>
      <point x="81" y="644"/>
      <point x="104" y="642" type="curve" smooth="yes"/>
      <point x="161" y="637"/>
      <point x="171" y="632"/>
      <point x="171" y="580" type="curve" smooth="yes"/>
      <point x="171" y="62" type="line" smooth="yes"/>
      <point x="171" y="24"/>
      <point x="152" y="12"/>
      <point x="97" y="7" type="curve" smooth="yes"/>
      <point x="74" y="5"/>
      <point x="64" y="3"/>
      <point x="64" y="-1" type="curve" smooth="yes"/>
      <point x="64" y="-4"/>
      <point x="75" y="-5"/>
    </contour>
  </outline>
</glyph>
<glyph name="F" format="1">
  <advance width="519"/>
  <unicode hex="0046"/>
  <outline>
    <contour>
      <point x="90" y="-5" type="curve" smooth="yes"/>
      <point x="129" y="-5"/>
      <point x="139" y="1"/>
      <point x="175" y="1" type="curve" smooth="yes"/>
      <point x="203" y="1"/>
      <point x="218" y="-5"/>
      <point x="258" y="-5" type="curve" smooth="yes"/>
      <point x="270" y="-5"/>
      <point x="279" y="-4"/>
      <point x="279" y="-1" type="curve" smooth="yes"/>
      <point x="279" y="3"/>
      <point x="271" y="6"/>
      <point x="248" y="8" type="curve" smooth="yes"/>
      <point x="197" y="13"/>
      <point x="183" y="22"/>
      <point x="180" y="65" type="curve" smooth="yes"/>
      <point x="177" y="167"/>
      <point x="177" y="255"/>
      <point x="177" y="316" type="curve" smooth="yes"/>
      <point x="177" y="333"/>
      <point x="188" y="341"/>
      <point x="201" y="341" type="curve" smooth="yes"/>
      <point x="229" y="342"/>
      <point x="259" y="341"/>
      <point x="290" y="341" type="curve" smooth="yes"/>
      <point x="311" y="341"/>
      <point x="334" y="340"/>
      <point x="389" y="340" type="curve" smooth="yes"/>
      <point x="416" y="340"/>
      <point x="420" y="329"/>
      <point x="426" y="289" type="curve" smooth="yes"/>
      <point x="427" y="282"/>
      <point x="429" y="266"/>
      <point x="433" y="266" type="curve" smooth="yes"/>
      <point x="435" y="266"/>
      <point x="435" y="274"/>
      <point x="435" y="283" type="curve" smooth="yes"/>
      <point x="433" y="312"/>
      <point x="432" y="331"/>
      <point x="432" y="351" type="curve" smooth="yes"/>
      <point x="432" y="367"/>
      <point x="434" y="383"/>
      <point x="436" y="406" type="curve" smooth="yes"/>
      <point x="437" y="419"/>
      <point x="433" y="422"/>
      <point x="432" y="422" type="curve" smooth="yes"/>
      <point x="428" y="422"/>
      <point x="429" y="418"/>
      <point x="426" y="405" type="curve" smooth="yes"/>
      <point x="423" y="382"/>
      <point x="416" y="350"/>
      <point x="385" y="350" type="curve" smooth="yes"/>
      <point x="311" y="350"/>
      <point x="243" y="350"/>
      <point x="187" y="350" type="curve" smooth="yes"/>
      <point x="178" y="350"/>
      <point x="177" y="361"/>
      <point x="177" y="372" type="curve"/>
      <point x="176" y="396"/>
      <point x="176" y="433"/>
      <point x="176" y="467" type="curve" smooth="yes"/>
      <point x="176" y="502"/>
      <point x="176" y="542"/>
      <point x="177" y="580" type="curve" smooth="yes"/>
      <point x="178" y="629"/>
      <point x="186" y="640"/>
      <point x="244" y="640" type="curve" smooth="yes"/>
      <point x="434" y="640" type="line" smooth="yes"/>
      <point x="447" y="640"/>
      <point x="459" y="632"/>
      <point x="469" y="605" type="curve" smooth="yes"/>
      <point x="473" y="592"/>
      <point x="478" y="569"/>
      <point x="481" y="541" type="curve" smooth="yes"/>
      <point x="482" y="534"/>
      <point x="485" y="529"/>
      <point x="488" y="529" type="curve" smooth="yes"/>
      <point x="491" y="529"/>
      <point x="492" y="538"/>
      <point x="492" y="550" type="curve" smooth="yes"/>
      <point x="492" y="564"/>
      <point x="490" y="628"/>
      <point x="487" y="651" type="curve" smooth="yes"/>
      <point x="486" y="658"/>
      <point x="477" y="660"/>
      <point x="470" y="660" type="curve" smooth="yes"/>
      <point x="448" y="660"/>
      <point x="418" y="650"/>
      <point x="378" y="650" type="curve"/>
      <point x="339" y="650"/>
      <point x="296" y="650"/>
      <point x="260" y="650" type="curve" smooth="yes"/>
      <point x="195" y="650"/>
      <point x="167" y="653"/>
      <point x="99" y="653" type="curve" smooth="yes"/>
      <point x="82" y="653"/>
      <point x="70" y="652"/>
      <point x="70" y="649" type="curve" smooth="yes"/>
      <point x="70" y="646"/>
      <point x="80" y="645"/>
      <point x="102" y="643" type="curve" smooth="yes"/>
      <point x="154" y="639"/>
      <point x="164" y="628"/>
      <point x="164" y="580" type="curve" smooth="yes"/>
      <point x="164" y="59" type="line" smooth="yes"/>
      <point x="164" y="20"/>
      <point x="146" y="11"/>
      <point x="94" y="7" type="curve" smooth="yes"/>
      <point x="72" y="5"/>
      <point x="64" y="1"/>
      <point x="64" y="-2" type="curve" smooth="yes"/>
      <point x="64" y="-4"/>
      <point x="73" y="-5"/>
    </contour>
  </outline>
</glyph>
<glyph name="G" format="1">
  <advance width="729"/>
  <unicode hex="0047"/>
  <outline>
    <contour>
      <point x="394" y="-14" type="curve" smooth="yes"/>
      <point x="518" y="-14"/>
      <point x="608" y="50"/>
      <point x="628" y="53" type="curve" smooth="yes"/>
      <point x="639" y="55"/>
      <point x="639" y="67"/>
      <point x="639" y="72" type="curve" smooth="yes"/>
      <point x="639" y="77"/>
      <point x="632" y="82"/>
      <point x="629" y="89" type="curve"/>
      <point x="626" y="95"/>
      <point x="624" y="98"/>
      <point x="624" y="105" type="curve" smooth="yes"/>
      <point x="624" y="132" type="line" smooth="yes"/>
      <point x="624" y="157"/>
      <point x="625" y="177"/>
      <point x="627" y="228" type="curve" smooth="yes"/>
      <point x="629" y="272"/>
      <point x="632" y="276"/>
      <point x="671" y="280" type="curve" smooth="yes"/>
      <point x="682" y="281"/>
      <point x="692" y="284"/>
      <point x="692" y="286" type="curve" smooth="yes"/>
      <point x="692" y="290"/>
      <point x="676" y="290"/>
      <point x="673" y="290" type="curve" smooth="yes"/>
      <point x="652" y="290"/>
      <point x="642" y="286"/>
      <point x="622" y="286" type="curve" smooth="yes"/>
      <point x="575" y="286"/>
      <point x="556" y="290"/>
      <point x="513" y="290" type="curve" smooth="yes"/>
      <point x="502" y="290"/>
      <point x="493" y="288"/>
      <point x="493" y="285" type="curve" smooth="yes"/>
      <point x="493" y="282"/>
      <point x="503" y="280"/>
      <point x="513" y="280" type="curve" smooth="yes"/>
      <point x="533" y="280"/>
      <point x="588" y="276"/>
      <point x="605" y="270" type="curve" smooth="yes"/>
      <point x="614" y="267"/>
      <point x="616" y="252"/>
      <point x="616" y="226" type="curve" smooth="yes"/>
      <point x="616" y="188"/>
      <point x="614" y="128"/>
      <point x="614" y="111" type="curve" smooth="yes"/>
      <point x="614" y="91"/>
      <point x="603" y="70"/>
      <point x="584" y="53" type="curve" smooth="yes"/>
      <point x="550" y="21"/>
      <point x="488" y="-2"/>
      <point x="406" y="-2" type="curve" smooth="yes"/>
      <point x="246" y="-2"/>
      <point x="87" y="116"/>
      <point x="87" y="321" type="curve" smooth="yes"/>
      <point x="87" y="492"/>
      <point x="216" y="650"/>
      <point x="404" y="650" type="curve" smooth="yes"/>
      <point x="501" y="650"/>
      <point x="558" y="637"/>
      <point x="585" y="603" type="curve" smooth="yes"/>
      <point x="604" y="579"/>
      <point x="611" y="548"/>
      <point x="613" y="510" type="curve" smooth="yes"/>
      <point x="614" y="496"/>
      <point x="619" y="478"/>
      <point x="626" y="478" type="curve" smooth="yes"/>
      <point x="629" y="478"/>
      <point x="634" y="490"/>
      <point x="634" y="501" type="curve" smooth="yes"/>
      <point x="634" y="527"/>
      <point x="627" y="579"/>
      <point x="622" y="618" type="curve" smooth="yes"/>
      <point x="621" y="625"/>
      <point x="619" y="627"/>
      <point x="613" y="630" type="curve" smooth="yes"/>
      <point x="586" y="643"/>
      <point x="459" y="663"/>
      <point x="413" y="663" type="curve" smooth="yes"/>
      <point x="230" y="663"/>
      <point x="75" y="515"/>
      <point x="75" y="317" type="curve" smooth="yes"/>
      <point x="75" y="132"/>
      <point x="224" y="-14"/>
    </contour>
  </outline>
</glyph>
<glyph name="I" format="1">
  <advance width="340"/>
  <unicode hex="0049"/>
  <outline>
    <contour>
      <point x="79" y="-5" type="curve" smooth="yes"/>
      <point x="119" y="-5"/>
      <point x="137" y="-3"/>
      <point x="175" y="-3" type="curve" smooth="yes"/>
      <point x="209" y="-3"/>
      <point x="222" y="-5"/>
      <point x="262" y="-5" type="curve" smooth="yes"/>
      <point x="275" y="-5"/>
      <point x="284" y="-4"/>
      <point x="284" y="-2" type="curve" smooth="yes"/>
      <point x="284" y="1"/>
      <point x="277" y="3"/>
      <point x="259" y="4" type="curve" smooth="yes"/>
      <point x="206" y="7"/>
      <point x="175" y="13"/>
      <point x="175" y="57" type="curve" smooth="yes"/>
      <point x="175" y="593" type="line" smooth="yes"/>
      <point x="175" y="632"/>
      <point x="200" y="642"/>
      <point x="259" y="645" type="curve" smooth="yes"/>
      <point x="277" y="646"/>
      <point x="285" y="648"/>
      <point x="285" y="650" type="curve" smooth="yes"/>
      <point x="285" y="652"/>
      <point x="275" y="653"/>
      <point x="262" y="653" type="curve" smooth="yes"/>
      <point x="219" y="653"/>
      <point x="209" y="652"/>
      <point x="175" y="652" type="curve" smooth="yes"/>
      <point x="139" y="652"/>
      <point x="125" y="653"/>
      <point x="82" y="653" type="curve" smooth="yes"/>
      <point x="69" y="653"/>
      <point x="59" y="652"/>
      <point x="59" y="650" type="curve" smooth="yes"/>
      <point x="59" y="648"/>
      <point x="67" y="646"/>
      <point x="85" y="645" type="curve" smooth="yes"/>
      <point x="143" y="643"/>
      <point x="163" y="632"/>
      <point x="163" y="593" type="curve" smooth="yes"/>
      <point x="163" y="57" type="line" smooth="yes"/>
      <point x="163" y="13"/>
      <point x="134" y="8"/>
      <point x="82" y="4" type="curve" smooth="yes"/>
      <point x="64" y="3"/>
      <point x="57" y="1"/>
      <point x="57" y="-2" type="curve" smooth="yes"/>
      <point x="57" y="-4"/>
      <point x="66" y="-5"/>
    </contour>
  </outline>
</glyph>
<glyph name="J" format="1">
  <advance width="340"/>
  <unicode hex="004A"/>
  <outline>
    <contour>
      <point x="-30" y="-200" type="curve" smooth="yes"/>
      <point x="42" y="-200"/>
      <point x="93" y="-173"/>
      <point x="127" y="-127" type="curve" smooth="yes"/>
      <point x="160" y="-82"/>
      <point x="175" y="-18"/>
      <point x="175" y="57" type="curve" smooth="yes"/>
      <point x="175" y="593" type="line" smooth="yes"/>
      <point x="175" y="632"/>
      <point x="200" y="642"/>
      <point x="259" y="645" type="curve" smooth="yes"/>
      <point x="277" y="646"/>
      <point x="285" y="648"/>
      <point x="285" y="650" type="curve" smooth="yes"/>
      <point x="285" y="652"/>
      <point x="275" y="653"/>
      <point x="262" y="653" type="curve" smooth="yes"/>
      <point x="219" y="653"/>
      <point x="209" y="652"/>
      <point x="175" y="652" type="curve" smooth="yes"/>
      <point x="139" y="652"/>
      <point x="125" y="653"/>
      <point x="82" y="653" type="curve" smooth="yes"/>
      <point x="69" y="653"/>
      <point x="59" y="652"/>
      <point x="59" y="650" type="curve" smooth="yes"/>
      <point x="59" y="648"/>
      <point x="67" y="646"/>
      <point x="85" y="645" type="curve" smooth="yes"/>
      <point x="143" y="643"/>
      <point x="163" y="632"/>
      <point x="163" y="593" type="curve" smooth="yes"/>
      <point x="163" y="57" type="line" smooth="yes"/>
      <point x="163" y="-91"/>
      <point x="112" y="-184"/>
      <point x="-19" y="-184" type="curve" smooth="yes"/>
      <point x="-25" y="-184"/>
      <point x="-30" y="-182"/>
      <point x="-37" y="-174" type="curve" smooth="yes"/>
      <point x="-42" y="-167"/>
      <point x="-48" y="-164"/>
      <point x="-54" y="-164" type="curve" smooth="yes"/>
      <point x="-60" y="-164"/>
      <point x="-69" y="-173"/>
      <point x="-69" y="-182" type="curve" smooth="yes"/>
      <point x="-69" y="-193"/>
      <point x="-56" y="-200"/>
    </contour>
  </outline>
</glyph>
<glyph name="K" format="1">
  <advance width="681"/>
  <unicode hex="004B"/>
  <outline>
    <contour>
      <point x="85" y="-5" type="curve" smooth="yes"/>
      <point x="124" y="-5"/>
      <point x="133" y="-4"/>
      <point x="164" y="-4" type="curve" smooth="yes"/>
      <point x="197" y="-4"/>
      <point x="209" y="-5"/>
      <point x="248" y="-5" type="curve" smooth="yes"/>
      <point x="260" y="-5"/>
      <point x="269" y="-4"/>
      <point x="269" y="-1" type="curve" smooth="yes"/>
      <point x="269" y="5"/>
      <point x="263" y="4"/>
      <point x="240" y="6" type="curve" smooth="yes"/>
      <point x="172" y="12"/>
      <point x="160" y="24"/>
      <point x="160" y="66" type="curve" smooth="yes"/>
      <point x="160" y="147"/>
      <point x="160" y="228"/>
      <point x="160" y="309" type="curve" smooth="yes"/>
      <point x="160" y="316"/>
      <point x="159" y="330"/>
      <point x="164" y="330" type="curve" smooth="yes"/>
      <point x="169" y="330"/>
      <point x="179" y="321"/>
      <point x="187" y="313" type="curve" smooth="yes"/>
      <point x="441" y="72" type="line" smooth="yes"/>
      <point x="452" y="62"/>
      <point x="457" y="49"/>
      <point x="457" y="38" type="curve" smooth="yes"/>
      <point x="457" y="28"/>
      <point x="447" y="16"/>
      <point x="424" y="12" type="curve" smooth="yes"/>
      <point x="408" y="9"/>
      <point x="404" y="8"/>
      <point x="404" y="5" type="curve" smooth="yes"/>
      <point x="404" y="1"/>
      <point x="413" y="0"/>
      <point x="425" y="0" type="curve" smooth="yes"/>
      <point x="458" y="0"/>
      <point x="466" y="0"/>
      <point x="484" y="0" type="curve" smooth="yes"/>
      <point x="525" y="0"/>
      <point x="543" y="-2"/>
      <point x="586" y="-2" type="curve" smooth="yes"/>
      <point x="599" y="-2"/>
      <point x="607" y="-1"/>
      <point x="607" y="3" type="curve" smooth="yes"/>
      <point x="607" y="7"/>
      <point x="600" y="8"/>
      <point x="583" y="11" type="curve" smooth="yes"/>
      <point x="514" y="23"/>
      <point x="499" y="35"/>
      <point x="446" y="85" type="curve" smooth="yes"/>
      <point x="193" y="323" type="line" smooth="yes"/>
      <point x="186" y="330"/>
      <point x="183" y="336"/>
      <point x="188" y="341" type="curve" smooth="yes"/>
      <point x="262" y="416"/>
      <point x="368" y="517"/>
      <point x="439" y="579" type="curve" smooth="yes"/>
      <point x="481" y="615"/>
      <point x="518" y="637"/>
      <point x="562" y="643" type="curve" smooth="yes"/>
      <point x="585" y="646"/>
      <point x="595" y="648"/>
      <point x="595" y="651" type="curve" smooth="yes"/>
      <point x="595" y="654"/>
      <point x="586" y="655"/>
      <point x="573" y="655" type="curve" smooth="yes"/>
      <point x="560" y="655"/>
      <point x="507" y="654"/>
      <point x="450" y="654" type="curve" smooth="yes"/>
      <point x="396" y="654" type="line" smooth="yes"/>
      <point x="379" y="654"/>
      <point x="367" y="652"/>
      <point x="367" y="649" type="curve" smooth="yes"/>
      <point x="367" y="646"/>
      <point x="375" y="643"/>
      <point x="398" y="642" type="curve" smooth="yes"/>
      <point x="440" y="641"/>
      <point x="456" y="634"/>
      <point x="456" y="622" type="curve" smooth="yes"/>
      <point x="456" y="617"/>
      <point x="452" y="611"/>
      <point x="445" y="604" type="curve" smooth="yes"/>
      <point x="192" y="363" type="line"/>
      <point x="185" y="355"/>
      <point x="172" y="345"/>
      <point x="165" y="345" type="curve" smooth="yes"/>
      <point x="160" y="345"/>
      <point x="160" y="359"/>
      <point x="160" y="364" type="curve" smooth="yes"/>
      <point x="160" y="580" type="line" smooth="yes"/>
      <point x="160" y="626"/>
      <point x="169" y="638"/>
      <point x="222" y="642" type="curve" smooth="yes"/>
      <point x="259" y="645"/>
      <point x="269" y="645"/>
      <point x="269" y="648" type="curve" smooth="yes"/>
      <point x="269" y="651"/>
      <point x="262" y="653"/>
      <point x="246" y="653" type="curve" smooth="yes"/>
      <point x="197" y="653"/>
      <point x="190" y="652"/>
      <point x="160" y="652" type="curve" smooth="yes"/>
      <point x="132" y="652"/>
      <point x="125" y="653"/>
      <point x="87" y="653" type="curve" smooth="yes"/>
      <point x="74" y="653"/>
      <point x="64" y="651"/>
      <point x="64" y="648" type="curve" smooth="yes"/>
      <point x="64" y="645"/>
      <point x="74" y="644"/>
      <point x="99" y="641" type="curve" smooth="yes"/>
      <point x="145" y="635"/>
      <point x="148" y="620"/>
      <point x="148" y="580" type="curve" smooth="yes"/>
      <point x="148" y="61" type="line" smooth="yes"/>
      <point x="148" y="26"/>
      <point x="137" y="9"/>
      <point x="87" y="6" type="curve" smooth="yes"/>
      <point x="71" y="5"/>
      <point x="64" y="5"/>
      <point x="64" y="-1" type="curve" smooth="yes"/>
      <point x="64" y="-4"/>
      <point x="73" y="-5"/>
    </contour>
  </outline>
</glyph>
<glyph name="L" format="1">
  <advance width="594"/>
  <unicode hex="004C"/>
  <outline>
    <contour>
      <point x="92" y="-5" type="curve"/>
      <point x="125" y="-5"/>
      <point x="158" y="0"/>
      <point x="191" y="0" type="curve"/>
      <point x="291" y="0"/>
      <point x="400" y="-5"/>
      <point x="534" y="-5" type="curve" smooth="yes"/>
      <point x="544" y="-5"/>
      <point x="547" y="3"/>
      <point x="548" y="12" type="curve" smooth="yes"/>
      <point x="553" y="54"/>
      <point x="559" y="77"/>
      <point x="567" y="107" type="curve" smooth="yes"/>
      <point x="572" y="127"/>
      <point x="576" y="138"/>
      <point x="576" y="144" type="curve" smooth="yes"/>
      <point x="576" y="154"/>
      <point x="574" y="162"/>
      <point x="569" y="162" type="curve" smooth="yes"/>
      <point x="565" y="162"/>
      <point x="559" y="154"/>
      <point x="553" y="126" type="curve" smooth="yes"/>
      <point x="544" y="82"/>
      <point x="534" y="71"/>
      <point x="519" y="46" type="curve" smooth="yes"/>
      <point x="501" y="17"/>
      <point x="484" y="9"/>
      <point x="449" y="9" type="curve" smooth="yes"/>
      <point x="288" y="9" type="line" smooth="yes"/>
      <point x="179" y="9"/>
      <point x="170" y="17"/>
      <point x="170" y="66" type="curve" smooth="yes"/>
      <point x="170" y="593" type="line" smooth="yes"/>
      <point x="170" y="633"/>
      <point x="187" y="643"/>
      <point x="259" y="643" type="curve" smooth="yes"/>
      <point x="280" y="643"/>
      <point x="292" y="646"/>
      <point x="292" y="649" type="curve" smooth="yes"/>
      <point x="292" y="652"/>
      <point x="283" y="653"/>
      <point x="270" y="653" type="curve" smooth="yes"/>
      <point x="228" y="653"/>
      <point x="211" y="650"/>
      <point x="172" y="650" type="curve" smooth="yes"/>
      <point x="139" y="650"/>
      <point x="128" y="653"/>
      <point x="87" y="653" type="curve" smooth="yes"/>
      <point x="73" y="653"/>
      <point x="64" y="652"/>
      <point x="64" y="649" type="curve" smooth="yes"/>
      <point x="64" y="646"/>
      <point x="72" y="643"/>
      <point x="97" y="642" type="curve" smooth="yes"/>
      <point x="149" y="640"/>
      <point x="158" y="625"/>
      <point x="158" y="594" type="curve" smooth="yes"/>
      <point x="158" y="57" type="line" smooth="yes"/>
      <point x="158" y="25"/>
      <point x="131" y="6"/>
      <point x="86" y="6" type="curve" smooth="yes"/>
      <point x="78" y="6"/>
      <point x="64" y="5"/>
      <point x="64" y="0" type="curve" smooth="yes"/>
      <point x="64" y="-3"/>
      <point x="74" y="-5"/>
    </contour>
  </outline>
</glyph>
<glyph name="M" format="1">
  <advance width="901"/>
  <unicode hex="004D"/>
  <outline>
    <contour>
      <point x="57" y="-5" type="curve" smooth="yes"/>
      <point x="107" y="-5"/>
      <point x="107" y="0"/>
      <point x="140" y="0" type="curve" smooth="yes"/>
      <point x="173" y="0"/>
      <point x="174" y="-5"/>
      <point x="224" y="-5" type="curve" smooth="yes"/>
      <point x="239" y="-5"/>
      <point x="249" y="-3"/>
      <point x="249" y="1" type="curve" smooth="yes"/>
      <point x="249" y="7"/>
      <point x="239" y="8"/>
      <point x="216" y="11" type="curve" smooth="yes"/>
      <point x="171" y="17"/>
      <point x="148" y="25"/>
      <point x="148" y="57" type="curve" smooth="yes"/>
      <point x="149" y="229"/>
      <point x="178" y="362"/>
      <point x="184" y="534" type="curve" smooth="yes"/>
      <point x="184" y="539"/>
      <point x="187" y="540"/>
      <point x="189" y="534" type="curve" smooth="yes"/>
      <point x="256" y="355"/>
      <point x="339" y="171"/>
      <point x="397" y="-4" type="curve" smooth="yes"/>
      <point x="402" y="-14"/>
      <point x="407" y="-14"/>
      <point x="411" y="-5" type="curve" smooth="yes"/>
      <point x="677" y="560" type="line" smooth="yes"/>
      <point x="681" y="568"/>
      <point x="686" y="566"/>
      <point x="686" y="560" type="curve" smooth="yes"/>
      <point x="692" y="393"/>
      <point x="698" y="282"/>
      <point x="701" y="65" type="curve" smooth="yes"/>
      <point x="702" y="21"/>
      <point x="692" y="8"/>
      <point x="648" y="7" type="curve" smooth="yes"/>
      <point x="625" y="6"/>
      <point x="615" y="3"/>
      <point x="615" y="0" type="curve" smooth="yes"/>
      <point x="615" y="-4"/>
      <point x="624" y="-5"/>
      <point x="637" y="-5" type="curve" smooth="yes"/>
      <point x="677" y="-5"/>
      <point x="685" y="0"/>
      <point x="716" y="0" type="curve" smooth="yes"/>
      <point x="751" y="0"/>
      <point x="764" y="-5"/>
      <point x="804" y="-5" type="curve" smooth="yes"/>
      <point x="817" y="-5"/>
      <point x="826" y="-4"/>
      <point x="826" y="0" type="curve" smooth="yes"/>
      <point x="826" y="4"/>
      <point x="816" y="6"/>
      <point x="793" y="8" type="curve" smooth="yes"/>
      <point x="729" y="13"/>
      <point x="719" y="20"/>
      <point x="716" y="58" type="curve" smooth="yes"/>
      <point x="709" y="246"/>
      <point x="696" y="382"/>
      <point x="696" y="568" type="curve" smooth="yes"/>
      <point x="696" y="597"/>
      <point x="700" y="614"/>
      <point x="714" y="626" type="curve" smooth="yes"/>
      <point x="726" y="635"/>
      <point x="746" y="640"/>
      <point x="779" y="643" type="curve" smooth="yes"/>
      <point x="796" y="644"/>
      <point x="805" y="648"/>
      <point x="805" y="652" type="curve" smooth="yes"/>
      <point x="805" y="656"/>
      <point x="795" y="656"/>
      <point x="792" y="656" type="curve" smooth="yes"/>
      <point x="776" y="656"/>
      <point x="744" y="648"/>
      <point x="718" y="648" type="curve" smooth="yes"/>
      <point x="694" y="648" type="line" smooth="yes"/>
      <point x="689" y="648"/>
      <point x="686" y="643"/>
      <point x="684" y="635" type="curve" smooth="yes"/>
      <point x="679" y="614"/>
      <point x="673" y="589"/>
      <point x="667" y="567" type="curve"/>
      <point x="407" y="12" type="line" smooth="yes"/>
      <point x="406" y="10"/>
      <point x="404" y="7"/>
      <point x="403" y="12" type="curve"/>
      <point x="193" y="554" type="line"/>
      <point x="183" y="579"/>
      <point x="178" y="607"/>
      <point x="171" y="631" type="curve" smooth="yes"/>
      <point x="168" y="641"/>
      <point x="161" y="647"/>
      <point x="152" y="647" type="curve" smooth="yes"/>
      <point x="139" y="647"/>
      <point x="87" y="655"/>
      <point x="73" y="655" type="curve" smooth="yes"/>
      <point x="62" y="655"/>
      <point x="55" y="655"/>
      <point x="55" y="650" type="curve" smooth="yes"/>
      <point x="55" y="647"/>
      <point x="65" y="644"/>
      <point x="77" y="642" type="curve" smooth="yes"/>
      <point x="114" y="637"/>
      <point x="135" y="631"/>
      <point x="148" y="619" type="curve" smooth="yes"/>
      <point x="160" y="607"/>
      <point x="164" y="589"/>
      <point x="167" y="561" type="curve" smooth="yes"/>
      <point x="168" y="551"/>
      <point x="168" y="538"/>
      <point x="168" y="528" type="curve" smooth="yes"/>
      <point x="168" y="437"/>
      <point x="151" y="257"/>
      <point x="129" y="61" type="curve" smooth="yes"/>
      <point x="125" y="22"/>
      <point x="98" y="14"/>
      <point x="65" y="10" type="curve" smooth="yes"/>
      <point x="42" y="7"/>
      <point x="32" y="7"/>
      <point x="32" y="1" type="curve" smooth="yes"/>
      <point x="32" y="-4"/>
      <point x="42" y="-5"/>
    </contour>
  </outline>
</glyph>
<glyph name="N" format="1">
  <advance width="792"/>
  <unicode hex="004E"/>
  <outline>
    <contour>
      <point x="684" y="-17" type="curve" smooth="yes"/>
      <point x="686" y="-17"/>
      <point x="689" y="-16"/>
      <point x="689" y="-11" type="curve" smooth="yes"/>
      <point x="689" y="21"/>
      <point x="684" y="57"/>
      <point x="684" y="105" type="curve" smooth="yes"/>
      <point x="684" y="263"/>
      <point x="685" y="571"/>
      <point x="686" y="589" type="curve" smooth="yes"/>
      <point x="689" y="633"/>
      <point x="692" y="637"/>
      <point x="749" y="643" type="curve" smooth="yes"/>
      <point x="772" y="645"/>
      <point x="782" y="647"/>
      <point x="782" y="649" type="curve" smooth="yes"/>
      <point x="782" y="652"/>
      <point x="771" y="653"/>
      <point x="757" y="653" type="curve" smooth="yes"/>
      <point x="703" y="653"/>
      <point x="698" y="650"/>
      <point x="656" y="650" type="curve" smooth="yes"/>
      <point x="639" y="650"/>
      <point x="623" y="650"/>
      <point x="606" y="650" type="curve" smooth="yes"/>
      <point x="591" y="650"/>
      <point x="570" y="649"/>
      <point x="570" y="646" type="curve" smooth="yes"/>
      <point x="570" y="644"/>
      <point x="592" y="640"/>
      <point x="615" y="640" type="curve" smooth="yes"/>
      <point x="662" y="640"/>
      <point x="672" y="630"/>
      <point x="672" y="590" type="curve" smooth="yes"/>
      <point x="673" y="346"/>
      <point x="676" y="94"/>
      <point x="674" y="44" type="curve" smooth="yes"/>
      <point x="673" y="29"/>
      <point x="670" y="23"/>
      <point x="666" y="23" type="curve" smooth="yes"/>
      <point x="658" y="23"/>
      <point x="647" y="37"/>
      <point x="642" y="43" type="curve" smooth="yes"/>
      <point x="622" y="67"/>
      <point x="185" y="607"/>
      <point x="163" y="636" type="curve"/>
      <point x="157" y="645"/>
      <point x="148" y="656"/>
      <point x="139" y="656" type="curve" smooth="yes"/>
      <point x="103" y="656"/>
      <point x="64" y="658"/>
      <point x="29" y="658" type="curve" smooth="yes"/>
      <point x="24" y="658"/>
      <point x="12" y="657"/>
      <point x="12" y="653" type="curve" smooth="yes"/>
      <point x="12" y="648"/>
      <point x="30" y="645"/>
      <point x="36" y="645" type="curve" smooth="yes"/>
      <point x="109" y="645"/>
      <point x="142" y="624"/>
      <point x="142" y="601" type="curve" smooth="yes"/>
      <point x="142" y="397"/>
      <point x="135" y="194"/>
      <point x="127" y="55" type="curve" smooth="yes"/>
      <point x="124" y="18"/>
      <point x="115" y="9"/>
      <point x="66" y="7" type="curve" smooth="yes"/>
      <point x="43" y="6"/>
      <point x="33" y="2"/>
      <point x="33" y="-1" type="curve" smooth="yes"/>
      <point x="33" y="-4"/>
      <point x="43" y="-5"/>
      <point x="58" y="-5" type="curve" smooth="yes"/>
      <point x="105" y="-5"/>
      <point x="106" y="0"/>
      <point x="137" y="0" type="curve" smooth="yes"/>
      <point x="169" y="0"/>
      <point x="172" y="-5"/>
      <point x="219" y="-5" type="curve" smooth="yes"/>
      <point x="234" y="-5"/>
      <point x="244" y="-4"/>
      <point x="244" y="-1" type="curve" smooth="yes"/>
      <point x="244" y="2"/>
      <point x="234" y="7"/>
      <point x="211" y="7" type="curve" smooth="yes"/>
      <point x="150" y="7"/>
      <point x="145" y="18"/>
      <point x="145" y="57" type="curve" smooth="yes"/>
      <point x="145" y="239"/>
      <point x="152" y="477"/>
      <point x="152" y="587" type="curve" smooth="yes"/>
      <point x="152" y="595"/>
      <point x="154" y="608"/>
      <point x="161" y="608" type="curve" smooth="yes"/>
      <point x="166" y="608"/>
      <point x="172" y="604"/>
      <point x="182" y="592" type="curve" smooth="yes"/>
      <point x="204" y="563"/>
      <point x="645" y="25"/>
      <point x="662" y="-1" type="curve"/>
      <point x="670" y="-12"/>
      <point x="681" y="-17"/>
    </contour>
  </outline>
</glyph>
<glyph name="O" format="1">
  <advance width="763"/>
  <unicode hex="004F"/>
  <outline>
    <contour>
      <point x="378" y="-14" type="curve" smooth="yes"/>
      <point x="571" y="-14"/>
      <point x="675" y="155"/>
      <point x="675" y="335" type="curve" smooth="yes"/>
      <point x="675" y="532"/>
      <point x="539" y="664"/>
      <point x="385" y="664" type="curve" smooth="yes"/>
      <point x="192" y="664"/>
      <point x="88" y="495"/>
      <point x="88" y="315" type="curve" smooth="yes"/>
      <point x="88" y="118"/>
      <point x="224" y="-14"/>
    </contour>
    <contour>
      <point x="394" y="-4" type="curve" smooth="yes"/>
      <point x="198" y="-4"/>
      <point x="101" y="165"/>
      <point x="101" y="323" type="curve" smooth="yes"/>
      <point x="101" y="525"/>
      <point x="220" y="654"/>
      <point x="368" y="654" type="curve" smooth="yes"/>
      <point x="564" y="654"/>
      <point x="662" y="485"/>
      <point x="662" y="322" type="curve" smooth="yes"/>
      <point x="662" y="158"/>
      <point x="567" y="-4"/>
    </contour>
  </outline>
</glyph>
<glyph name="Q" format="1">
  <advance width="763"/>
  <unicode hex="0051"/>
  <outline>
    <contour>
      <point x="756" y="-248" type="curve" smooth="yes"/>
      <point x="789" y="-248"/>
      <point x="825" y="-237"/>
      <point x="859" y="-217" type="curve" smooth="yes"/>
      <point x="864" y="-214"/>
      <point x="866" y="-213"/>
      <point x="866" y="-211" type="curve" smooth="yes"/>
      <point x="866" y="-209"/>
      <point x="865" y="-208"/>
      <point x="862" y="-208" type="curve" smooth="yes"/>
      <point x="859" y="-208"/>
      <point x="849" y="-214"/>
      <point x="829" y="-222" type="curve" smooth="yes"/>
      <point x="804" y="-232"/>
      <point x="779" y="-239"/>
      <point x="755" y="-238" type="curve" smooth="yes"/>
      <point x="702" y="-236"/>
      <point x="649" y="-212"/>
      <point x="586" y="-171" type="curve" smooth="yes"/>
      <point x="525" y="-131"/>
      <point x="459" y="-62"/>
      <point x="411" y="-26" type="curve" smooth="yes"/>
      <point x="407" y="-23"/>
      <point x="405" y="-20"/>
      <point x="405" y="-18" type="curve" smooth="yes"/>
      <point x="405" y="-15"/>
      <point x="408" y="-12"/>
      <point x="416" y="-11" type="curve" smooth="yes"/>
      <point x="580" y="7"/>
      <point x="671" y="169"/>
      <point x="671" y="335" type="curve" smooth="yes"/>
      <point x="671" y="532"/>
      <point x="535" y="664"/>
      <point x="381" y="664" type="curve" smooth="yes"/>
      <point x="188" y="664"/>
      <point x="84" y="495"/>
      <point x="84" y="315" type="curve" smooth="yes"/>
      <point x="84" y="145"/>
      <point x="186" y="20"/>
      <point x="314" y="-7" type="curve" smooth="yes"/>
      <point x="370" y="-19"/>
      <point x="384" y="-18"/>
      <point x="444" y="-68" type="curve" smooth="yes"/>
      <point x="503" y="-118"/>
      <point x="526" y="-143"/>
      <point x="578" y="-178" type="curve" smooth="yes"/>
      <point x="650" y="-227"/>
      <point x="692" y="-248"/>
    </contour>
    <contour>
      <point x="390" y="-4" type="curve" smooth="yes"/>
      <point x="194" y="-4"/>
      <point x="97" y="165"/>
      <point x="97" y="323" type="curve" smooth="yes"/>
      <point x="97" y="525"/>
      <point x="216" y="654"/>
      <point x="364" y="654" type="curve" smooth="yes"/>
      <point x="560" y="654"/>
      <point x="658" y="485"/>
      <point x="658" y="322" type="curve" smooth="yes"/>
      <point x="658" y="158"/>
      <point x="563" y="-4"/>
    </contour>
  </outline>
</glyph>
<glyph name="R" format="1">
  <advance width="713"/>
  <unicode hex="0052"/>
  <outline>
    <contour>
      <point x="625" y="-21" type="curve" smooth="yes"/>
      <point x="647" y="-21"/>
      <point x="678" y="-19"/>
      <point x="678" y="-12" type="curve" smooth="yes"/>
      <point x="678" y="-10"/>
      <point x="673" y="-9"/>
      <point x="663" y="-9" type="curve" smooth="yes"/>
      <point x="574" y="-9"/>
      <point x="550" y="5"/>
      <point x="517" y="55" type="curve" smooth="yes"/>
      <point x="447" y="160"/>
      <point x="385" y="307"/>
      <point x="299" y="324" type="curve" smooth="yes"/>
      <point x="292" y="325"/>
      <point x="276" y="326"/>
      <point x="294" y="329" type="curve" smooth="yes"/>
      <point x="377" y="344"/>
      <point x="453" y="403"/>
      <point x="453" y="493" type="curve" smooth="yes"/>
      <point x="453" y="602"/>
      <point x="386" y="657"/>
      <point x="261" y="657" type="curve" smooth="yes"/>
      <point x="212" y="657"/>
      <point x="195" y="652"/>
      <point x="163" y="652" type="curve" smooth="yes"/>
      <point x="134" y="652"/>
      <point x="132" y="653"/>
      <point x="94" y="653" type="curve" smooth="yes"/>
      <point x="82" y="653"/>
      <point x="74" y="652"/>
      <point x="74" y="649" type="curve" smooth="yes"/>
      <point x="74" y="643"/>
      <point x="83" y="644"/>
      <point x="103" y="642" type="curve" smooth="yes"/>
      <point x="152" y="637"/>
      <point x="158" y="627"/>
      <point x="158" y="574" type="curve" smooth="yes"/>
      <point x="158" y="66" type="line" smooth="yes"/>
      <point x="158" y="18"/>
      <point x="152" y="14"/>
      <point x="100" y="11" type="curve" smooth="yes"/>
      <point x="82" y="10"/>
      <point x="74" y="7"/>
      <point x="74" y="2" type="curve" smooth="yes"/>
      <point x="74" y="-3"/>
      <point x="82" y="-5"/>
      <point x="94" y="-5" type="curve" smooth="yes"/>
      <point x="131" y="-5"/>
      <point x="147" y="-3"/>
      <point x="182" y="-3" type="curve" smooth="yes"/>
      <point x="208" y="-3"/>
      <point x="213" y="-5"/>
      <point x="250" y="-5" type="curve" smooth="yes"/>
      <point x="262" y="-5"/>
      <point x="271" y="-4"/>
      <point x="271" y="0" type="curve" smooth="yes"/>
      <point x="271" y="4"/>
      <point x="260" y="8"/>
      <point x="237" y="8" type="curve" smooth="yes"/>
      <point x="182" y="8"/>
      <point x="170" y="20"/>
      <point x="170" y="62" type="curve" smooth="yes"/>
      <point x="170" y="303" type="line" smooth="yes"/>
      <point x="170" y="315"/>
      <point x="174" y="323"/>
      <point x="185" y="323" type="curve" smooth="yes"/>
      <point x="252" y="323"/>
      <point x="289" y="321"/>
      <point x="317" y="309" type="curve" smooth="yes"/>
      <point x="342" y="298"/>
      <point x="359" y="279"/>
      <point x="383" y="246" type="curve" smooth="yes"/>
      <point x="459" y="141"/>
      <point x="476" y="93"/>
      <point x="520" y="33" type="curve" smooth="yes"/>
      <point x="552" y="-10"/>
      <point x="574" y="-21"/>
    </contour>
    <contour>
      <point x="240" y="332" type="curve" smooth="yes"/>
      <point x="197" y="332"/>
      <point x="169" y="331"/>
      <point x="169" y="366" type="curve" smooth="yes"/>
      <point x="169" y="451"/>
      <point x="167" y="510"/>
      <point x="169" y="575" type="curve" smooth="yes"/>
      <point x="174" y="631"/>
      <point x="182" y="647"/>
      <point x="242" y="647" type="curve" smooth="yes"/>
      <point x="410" y="647"/>
      <point x="441" y="572"/>
      <point x="441" y="486" type="curve" smooth="yes"/>
      <point x="441" y="404"/>
      <point x="363" y="332"/>
    </contour>
  </outline>
</glyph>
<glyph name="S" format="1">
  <advance width="465"/>
  <unicode hex="0053"/>
  <outline>
    <contour>
      <point x="224" y="-16" type="curve" smooth="yes"/>
      <point x="337" y="-16"/>
      <point x="395" y="54"/>
      <point x="395" y="162" type="curve" smooth="yes"/>
      <point x="395" y="257"/>
      <point x="339" y="296"/>
      <point x="257" y="344" type="curve" smooth="yes"/>
      <point x="188" y="384"/>
      <point x="104" y="436"/>
      <point x="104" y="511" type="curve" smooth="yes"/>
      <point x="104" y="617"/>
      <point x="175" y="655"/>
      <point x="252" y="655" type="curve" smooth="yes"/>
      <point x="316" y="655"/>
      <point x="350" y="615"/>
      <point x="370" y="521" type="curve" smooth="yes"/>
      <point x="372" y="513"/>
      <point x="376" y="507"/>
      <point x="382" y="507" type="curve" smooth="yes"/>
      <point x="385" y="507"/>
      <point x="388" y="510"/>
      <point x="388" y="518" type="curve" smooth="yes"/>
      <point x="388" y="550"/>
      <point x="376" y="589"/>
      <point x="368" y="617" type="curve" smooth="yes"/>
      <point x="365" y="627"/>
      <point x="357" y="638"/>
      <point x="347" y="642" type="curve" smooth="yes"/>
      <point x="325" y="651"/>
      <point x="310" y="664"/>
      <point x="252" y="664" type="curve" smooth="yes"/>
      <point x="147" y="664"/>
      <point x="93" y="595"/>
      <point x="93" y="508" type="curve" smooth="yes"/>
      <point x="93" y="425"/>
      <point x="162" y="388"/>
      <point x="251" y="334" type="curve" smooth="yes"/>
      <point x="331" y="285"/>
      <point x="383" y="253"/>
      <point x="383" y="156" type="curve" smooth="yes"/>
      <point x="383" y="58"/>
      <point x="329" y="0"/>
      <point x="222" y="0" type="curve" smooth="yes"/>
      <point x="151" y="0"/>
      <point x="111" y="52"/>
      <point x="90" y="160" type="curve" smooth="yes"/>
      <point x="88" y="168"/>
      <point x="86" y="171"/>
      <point x="82" y="171" type="curve" smooth="yes"/>
      <point x="77" y="171"/>
      <point x="73" y="166"/>
      <point x="73" y="157" type="curve"/>
      <point x="75" y="129"/>
      <point x="76" y="79"/>
      <point x="83" y="52" type="curve" smooth="yes"/>
      <point x="85" y="44"/>
      <point x="91" y="37"/>
      <point x="96" y="32" type="curve"/>
      <point x="129" y="1"/>
      <point x="173" y="-16"/>
    </contour>
  </outline>
</glyph>
<glyph name="T" format="1">
  <advance width="670"/>
  <unicode hex="0054"/>
  <outline>
    <contour>
      <point x="243" y="-5" type="curve" smooth="yes"/>
      <point x="284" y="-5"/>
      <point x="303" y="0"/>
      <point x="342" y="0" type="curve" smooth="yes"/>
      <point x="378" y="0"/>
      <point x="391" y="-5"/>
      <point x="432" y="-5" type="curve" smooth="yes"/>
      <point x="445" y="-5"/>
      <point x="455" y="-4"/>
      <point x="455" y="-1" type="curve" smooth="yes"/>
      <point x="455" y="3"/>
      <point x="445" y="4"/>
      <point x="422" y="6" type="curve" smooth="yes"/>
      <point x="357" y="12"/>
      <point x="343" y="20"/>
      <point x="343" y="57" type="curve" smooth="yes"/>
      <point x="343" y="517" type="line" smooth="yes"/>
      <point x="343" y="627"/>
      <point x="348" y="632"/>
      <point x="393" y="632" type="curve" smooth="yes"/>
      <point x="601" y="632" type="line" smooth="yes"/>
      <point x="639" y="632"/>
      <point x="642" y="625"/>
      <point x="646" y="564" type="curve" smooth="yes"/>
      <point x="647" y="538"/>
      <point x="646" y="523"/>
      <point x="649" y="523" type="curve" smooth="yes"/>
      <point x="652" y="523"/>
      <point x="654" y="543"/>
      <point x="654" y="555" type="curve" smooth="yes"/>
      <point x="654" y="567" type="line" smooth="yes"/>
      <point x="654" y="593"/>
      <point x="660" y="603"/>
      <point x="664" y="626" type="curve" smooth="yes"/>
      <point x="665" y="632"/>
      <point x="668" y="647"/>
      <point x="668" y="654" type="curve" smooth="yes"/>
      <point x="668" y="664"/>
      <point x="668" y="677"/>
      <point x="663" y="677" type="curve" smooth="yes"/>
      <point x="658" y="677"/>
      <point x="658" y="666"/>
      <point x="652" y="657" type="curve" smooth="yes"/>
      <point x="645" y="646"/>
      <point x="638" y="642"/>
      <point x="623" y="642" type="curve" smooth="yes"/>
      <point x="104" y="642" type="line" smooth="yes"/>
      <point x="86" y="642"/>
      <point x="77" y="646"/>
      <point x="77" y="662" type="curve" smooth="yes"/>
      <point x="77" y="685"/>
      <point x="75" y="694"/>
      <point x="71" y="694" type="curve" smooth="yes"/>
      <point x="69" y="694"/>
      <point x="64" y="693"/>
      <point x="63" y="671" type="curve" smooth="yes"/>
      <point x="58" y="629"/>
      <point x="53" y="604"/>
      <point x="36" y="566" type="curve"/>
      <point x="33" y="560"/>
      <point x="30" y="551"/>
      <point x="29" y="545" type="curve" smooth="yes"/>
      <point x="28" y="538"/>
      <point x="30" y="533"/>
      <point x="31" y="533" type="curve" smooth="yes"/>
      <point x="35" y="533"/>
      <point x="43" y="560"/>
      <point x="48" y="571" type="curve" smooth="yes"/>
      <point x="67" y="615"/>
      <point x="84" y="632"/>
      <point x="157" y="632" type="curve" smooth="yes"/>
      <point x="239" y="632" type="line" smooth="yes"/>
      <point x="273" y="632"/>
      <point x="291" y="632"/>
      <point x="310" y="628" type="curve" smooth="yes"/>
      <point x="326" y="625"/>
      <point x="331" y="603"/>
      <point x="331" y="512" type="curve" smooth="yes"/>
      <point x="331" y="57" type="line" smooth="yes"/>
      <point x="331" y="23"/>
      <point x="314" y="10"/>
      <point x="253" y="7" type="curve" smooth="yes"/>
      <point x="230" y="6"/>
      <point x="220" y="4"/>
      <point x="220" y="-1" type="curve" smooth="yes"/>
      <point x="220" y="-4"/>
      <point x="230" y="-5"/>
    </contour>
  </outline>
</glyph>
<glyph name="W" format="1">
  <advance width="916"/>
  <unicode hex="0057"/>
  <outline>
    <contour>
      <point x="346" y="-16"/>
      <point x="346" y="1"/>
      <point x="351" y="15" type="curve" smooth="yes"/>
      <point x="393" y="133"/>
      <point x="429" y="226"/>
      <point x="473" y="341" type="curve" smooth="yes"/>
      <point x="478" y="354"/>
      <point x="481" y="357"/>
      <point x="485" y="348" type="curve" smooth="yes"/>
      <point x="536" y="233"/>
      <point x="564" y="126"/>
      <point x="604" y="7" type="curve" smooth="yes"/>
      <point x="607" y="-2"/>
      <point x="616" y="-12"/>
      <point x="620" y="-12" type="curve" smooth="yes"/>
      <point x="627" y="-12"/>
      <point x="633" y="5"/>
      <point x="635" y="11" type="curve" smooth="yes"/>
      <point x="808" y="569" type="line" smooth="yes"/>
      <point x="815" y="590"/>
      <point x="834" y="638"/>
      <point x="883" y="642" type="curve" smooth="yes"/>
      <point x="907" y="644"/>
      <point x="925" y="641"/>
      <point x="925" y="647" type="curve" smooth="yes"/>
      <point x="925" y="651"/>
      <point x="920" y="653"/>
      <point x="903" y="653" type="curve" smooth="yes"/>
      <point x="878" y="653"/>
      <point x="846" y="650"/>
      <point x="813" y="650" type="curve" smooth="yes"/>
      <point x="787" y="650"/>
      <point x="787" y="651"/>
      <point x="758" y="651" type="curve" smooth="yes"/>
      <point x="740" y="651"/>
      <point x="727" y="650"/>
      <point x="727" y="648" type="curve" smooth="yes"/>
      <point x="727" y="645"/>
      <point x="748" y="642"/>
      <point x="763" y="642" type="curve" smooth="yes"/>
      <point x="798" y="642"/>
      <point x="809" y="632"/>
      <point x="809" y="611" type="curve" smooth="yes"/>
      <point x="809" y="604"/>
      <point x="807" y="596"/>
      <point x="804" y="586" type="curve" smooth="yes"/>
      <point x="777" y="495"/>
      <point x="649" y="115"/>
      <point x="628" y="21" type="curve" smooth="yes"/>
      <point x="626" y="12"/>
      <point x="617" y="8"/>
      <point x="615" y="15" type="curve" smooth="yes"/>
      <point x="494" y="360" type="line" smooth="yes"/>
      <point x="491" y="367"/>
      <point x="496" y="388"/>
      <point x="500" y="398" type="curve" smooth="yes"/>
      <point x="517" y="441"/>
      <point x="565" y="571"/>
      <point x="572" y="590" type="curve" smooth="yes"/>
      <point x="585" y="625"/>
      <point x="597" y="636"/>
      <point x="658" y="636" type="curve" smooth="yes"/>
      <point x="681" y="636"/>
      <point x="689" y="638"/>
      <point x="689" y="645" type="curve" smooth="yes"/>
      <point x="689" y="653"/>
      <point x="677" y="652"/>
      <point x="660" y="652" type="curve" smooth="yes"/>
      <point x="636" y="652"/>
      <point x="628" y="650"/>
      <point x="605" y="650" type="curve" smooth="yes"/>
      <point x="586" y="650"/>
      <point x="582" y="652"/>
      <point x="553" y="652" type="curve" smooth="yes"/>
      <point x="536" y="652"/>
      <point x="524" y="652"/>
      <point x="524" y="644" type="curve" smooth="yes"/>
      <point x="524" y="636"/>
      <point x="570" y="643"/>
      <point x="570" y="622" type="curve" smooth="yes"/>
      <point x="570" y="620"/>
      <point x="570" y="617"/>
      <point x="569" y="614" type="curve" smooth="yes"/>
      <point x="564" y="598"/>
      <point x="507" y="443"/>
      <point x="492" y="407" type="curve" smooth="yes"/>
      <point x="484" y="389"/>
      <point x="481" y="391"/>
      <point x="474" y="407" type="curve" smooth="yes"/>
      <point x="466" y="426"/>
      <point x="414" y="553"/>
      <point x="410" y="565" type="curve" smooth="yes"/>
      <point x="405" y="579"/>
      <point x="404" y="590"/>
      <point x="404" y="600" type="curve" smooth="yes"/>
      <point x="404" y="645"/>
      <point x="486" y="637"/>
      <point x="486" y="645" type="curve" smooth="yes"/>
      <point x="486" y="653"/>
      <point x="474" y="652"/>
      <point x="457" y="652" type="curve" smooth="yes"/>
      <point x="437" y="652"/>
      <point x="420" y="650"/>
      <point x="390" y="650" type="curve" smooth="yes"/>
      <point x="354" y="650"/>
      <point x="341" y="653"/>
      <point x="310" y="653" type="curve" smooth="yes"/>
      <point x="293" y="653"/>
      <point x="281" y="652"/>
      <point x="281" y="649" type="curve" smooth="yes"/>
      <point x="281" y="646"/>
      <point x="292" y="644"/>
      <point x="314" y="642" type="curve" smooth="yes"/>
      <point x="350" y="639"/>
      <point x="372" y="628"/>
      <point x="394" y="574" type="curve" smooth="yes"/>
      <point x="464" y="404" type="line" smooth="yes"/>
      <point x="469" y="392"/>
      <point x="472" y="383"/>
      <point x="472" y="375" type="curve" smooth="yes"/>
      <point x="472" y="369"/>
      <point x="470" y="362"/>
      <point x="466" y="352" type="curve" smooth="yes"/>
      <point x="346" y="39" type="line" smooth="yes"/>
      <point x="342" y="28"/>
      <point x="336" y="25"/>
      <point x="331" y="40" type="curve" smooth="yes"/>
      <point x="273" y="213"/>
      <point x="187" y="474"/>
      <point x="153" y="577" type="curve" smooth="yes"/>
      <point x="150" y="586"/>
      <point x="146" y="595"/>
      <point x="146" y="612" type="curve" smooth="yes"/>
      <point x="146" y="624"/>
      <point x="154" y="636"/>
      <point x="182" y="640" type="curve" smooth="yes"/>
      <point x="225" y="646"/>
      <point x="242" y="644"/>
      <point x="242" y="649" type="curve" smooth="yes"/>
      <point x="242" y="652"/>
      <point x="231" y="653"/>
      <point x="215" y="653" type="curve" smooth="yes"/>
      <point x="196" y="653"/>
      <point x="161" y="652"/>
      <point x="126" y="652" type="curve" smooth="yes"/>
      <point x="94" y="652"/>
      <point x="71" y="653"/>
      <point x="42" y="653" type="curve" smooth="yes"/>
      <point x="26" y="653"/>
      <point x="14" y="652"/>
      <point x="14" y="649" type="curve" smooth="yes"/>
      <point x="14" y="646"/>
      <point x="25" y="643"/>
      <point x="46" y="641" type="curve" smooth="yes"/>
      <point x="102" y="636"/>
      <point x="121" y="631"/>
      <point x="130" y="603" type="curve" smooth="yes"/>
      <point x="327" y="12" type="line" smooth="yes"/>
      <point x="331" y="-1"/>
      <point x="335" y="-16"/>
      <point x="338" y="-16" type="curve" smooth="yes"/>
    </contour>
  </outline>
</glyph>
<glyph name="X" format="1">
  <advance width="707"/>
  <unicode hex="0058"/>
  <outline>
    <contour>
      <point x="34" y="-5" type="curve" smooth="yes"/>
      <point x="61" y="-5"/>
      <point x="93" y="1"/>
      <point x="130" y="1" type="curve" smooth="yes"/>
      <point x="160" y="1"/>
      <point x="189" y="-1"/>
      <point x="204" y="-1" type="curve" smooth="yes"/>
      <point x="221" y="-1"/>
      <point x="233" y="0"/>
      <point x="233" y="4" type="curve" smooth="yes"/>
      <point x="233" y="8"/>
      <point x="223" y="10"/>
      <point x="200" y="13" type="curve" smooth="yes"/>
      <point x="161" y="17"/>
      <point x="147" y="22"/>
      <point x="147" y="33" type="curve" smooth="yes"/>
      <point x="147" y="42"/>
      <point x="158" y="56"/>
      <point x="168" y="70" type="curve" smooth="yes"/>
      <point x="347" y="311" type="line" smooth="yes"/>
      <point x="354" y="320"/>
      <point x="358" y="319"/>
      <point x="365" y="310" type="curve" smooth="yes"/>
      <point x="546" y="80" type="line" smooth="yes"/>
      <point x="559" y="64"/>
      <point x="564" y="48"/>
      <point x="564" y="38" type="curve" smooth="yes"/>
      <point x="564" y="18"/>
      <point x="538" y="13"/>
      <point x="495" y="9" type="curve" smooth="yes"/>
      <point x="484" y="8"/>
      <point x="469" y="6"/>
      <point x="469" y="3" type="curve" smooth="yes"/>
      <point x="469" y="1"/>
      <point x="479" y="0"/>
      <point x="492" y="0" type="curve" smooth="yes"/>
      <point x="511" y="0"/>
      <point x="517" y="1"/>
      <point x="550" y="1" type="curve" smooth="yes"/>
      <point x="587" y="1"/>
      <point x="641" y="-1"/>
      <point x="664" y="-1" type="curve" smooth="yes"/>
      <point x="677" y="-1"/>
      <point x="687" y="0"/>
      <point x="687" y="2" type="curve" smooth="yes"/>
      <point x="687" y="5"/>
      <point x="679" y="7"/>
      <point x="661" y="8" type="curve" smooth="yes"/>
      <point x="623" y="10"/>
      <point x="597" y="33"/>
      <point x="558" y="82" type="curve" smooth="yes"/>
      <point x="375" y="316" type="line" smooth="yes"/>
      <point x="368" y="325"/>
      <point x="373" y="333"/>
      <point x="380" y="342" type="curve" smooth="yes"/>
      <point x="541" y="558" type="line" smooth="yes"/>
      <point x="580" y="611"/>
      <point x="598" y="631"/>
      <point x="653" y="638" type="curve" smooth="yes"/>
      <point x="676" y="641"/>
      <point x="686" y="643"/>
      <point x="686" y="648" type="curve" smooth="yes"/>
      <point x="686" y="652"/>
      <point x="674" y="653"/>
      <point x="657" y="653" type="curve" smooth="yes"/>
      <point x="630" y="653"/>
      <point x="592" y="650"/>
      <point x="553" y="650" type="curve" smooth="yes"/>
      <point x="523" y="650"/>
      <point x="512" y="651"/>
      <point x="488" y="651" type="curve" smooth="yes"/>
      <point x="471" y="651"/>
      <point x="459" y="649"/>
      <point x="459" y="645" type="curve" smooth="yes"/>
      <point x="459" y="641"/>
      <point x="478" y="639"/>
      <point x="492" y="637" type="curve" smooth="yes"/>
      <point x="527" y="631"/>
      <point x="550" y="627"/>
      <point x="550" y="609" type="curve" smooth="yes"/>
      <point x="551" y="599"/>
      <point x="541" y="579"/>
      <point x="527" y="560" type="curve" smooth="yes"/>
      <point x="373" y="354" type="line" smooth="yes"/>
      <point x="362" y="339"/>
      <point x="359" y="334"/>
      <point x="345" y="355" type="curve" smooth="yes"/>
      <point x="213" y="546" type="line" smooth="yes"/>
      <point x="192" y="576"/>
      <point x="178" y="599"/>
      <point x="178" y="611" type="curve" smooth="yes"/>
      <point x="178" y="627"/>
      <point x="201" y="636"/>
      <point x="240" y="639" type="curve" smooth="yes"/>
      <point x="263" y="641"/>
      <point x="273" y="643"/>
      <point x="273" y="646" type="curve" smooth="yes"/>
      <point x="273" y="650"/>
      <point x="261" y="651"/>
      <point x="244" y="651" type="curve" smooth="yes"/>
      <point x="226" y="651"/>
      <point x="221" y="650"/>
      <point x="181" y="650" type="curve" smooth="yes"/>
      <point x="131" y="650"/>
      <point x="91" y="652"/>
      <point x="58" y="652" type="curve" smooth="yes"/>
      <point x="41" y="652"/>
      <point x="29" y="651"/>
      <point x="29" y="648" type="curve" smooth="yes"/>
      <point x="29" y="644"/>
      <point x="40" y="642"/>
      <point x="62" y="639" type="curve"/>
      <point x="121" y="636"/>
      <point x="146" y="618"/>
      <point x="200" y="541" type="curve" smooth="yes"/>
      <point x="332" y="351" type="line" smooth="yes"/>
      <point x="343" y="335"/>
      <point x="345" y="329"/>
      <point x="333" y="312" type="curve" smooth="yes"/>
      <point x="181" y="104" type="line" smooth="yes"/>
      <point x="130" y="34"/>
      <point x="91" y="15"/>
      <point x="38" y="7" type="curve" smooth="yes"/>
      <point x="16" y="4"/>
      <point x="5" y="2"/>
      <point x="5" y="-1" type="curve" smooth="yes"/>
      <point x="5" y="-4"/>
      <point x="17" y="-5"/>
    </contour>
  </outline>
</glyph>
<glyph name="bracketleft" format="1">
  <advance width="331"/>
  <unicode hex="005B"/>
  <outline>
    <contour>
      <point x="242" y="-200" type="line" smooth="yes"/>
      <point x="254" y="-200"/>
      <point x="268" y="-199"/>
      <point x="268" y="-197" type="curve" smooth="yes"/>
      <point x="268" y="-194"/>
      <point x="255" y="-192"/>
      <point x="242" y="-192" type="curve" smooth="yes"/>
      <point x="143" y="-191" type="line" smooth="yes"/>
      <point x="126" y="-191"/>
      <point x="120" y="-189"/>
      <point x="120" y="-167" type="curve" smooth="yes"/>
      <point x="120" y="668" type="line" smooth="yes"/>
      <point x="120" y="690"/>
      <point x="126" y="692"/>
      <point x="143" y="692" type="curve" smooth="yes"/>
      <point x="242" y="693" type="line" smooth="yes"/>
      <point x="255" y="693"/>
      <point x="268" y="695"/>
      <point x="268" y="698" type="curve" smooth="yes"/>
      <point x="268" y="700"/>
      <point x="254" y="701"/>
      <point x="242" y="701" type="curve" smooth="yes"/>
      <point x="141" y="701" type="line" smooth="yes"/>
      <point x="118" y="701"/>
      <point x="110" y="700"/>
      <point x="110" y="668" type="curve" smooth="yes"/>
      <point x="110" y="-167" type="line" smooth="yes"/>
      <point x="110" y="-199"/>
      <point x="118" y="-200"/>
      <point x="141" y="-200" type="curve" smooth="yes"/>
    </contour>
  </outline>
</glyph>
<glyph name="grave" format="1">
  <advance width="201"/>
  <unicode hex="0060"/>
  <outline>
    <contour>
      <point x="174" y="461" type="curve" smooth="yes"/>
      <point x="175" y="461"/>
      <point x="176" y="461"/>
      <point x="176" y="463" type="curve" smooth="yes"/>
      <point x="176" y="464"/>
      <point x="176" y="466"/>
      <point x="175" y="468" type="curve" smooth="yes"/>
      <point x="170" y="478"/>
      <point x="61" y="638"/>
      <point x="57" y="645" type="curve" smooth="yes"/>
      <point x="55" y="648"/>
      <point x="52" y="650"/>
      <point x="50" y="650" type="curve" smooth="yes"/>
      <point x="43" y="650"/>
      <point x="37" y="648"/>
      <point x="37" y="645" type="curve" smooth="yes"/>
      <point x="37" y="643"/>
      <point x="38" y="641"/>
      <point x="40" y="639" type="curve" smooth="yes"/>
      <point x="48" y="631"/>
      <point x="159" y="473"/>
      <point x="166" y="466" type="curve" smooth="yes"/>
      <point x="170" y="462"/>
      <point x="172" y="461"/>
    </contour>
  </outline>
</glyph>
<glyph name="a" format="1">
  <advance width="399"/>
  <unicode hex="0061"/>
  <outline>
    <contour>
      <point x="146" y="-14" type="curve" smooth="yes"/>
      <point x="187" y="-14"/>
      <point x="224" y="2"/>
      <point x="266" y="38" type="curve"/>
      <point x="269" y="38" type="line"/>
      <point x="274" y="2"/>
      <point x="299" y="-14"/>
      <point x="322" y="-14" type="curve" smooth="yes"/>
      <point x="335" y="-14"/>
      <point x="353" y="-7"/>
      <point x="366" y="6" type="curve" smooth="yes"/>
      <point x="370" y="10"/>
      <point x="375" y="15"/>
      <point x="375" y="21" type="curve" smooth="yes"/>
      <point x="375" y="26"/>
      <point x="373" y="29"/>
      <point x="370" y="29" type="curve" smooth="yes"/>
      <point x="367" y="29"/>
      <point x="364" y="27"/>
      <point x="363" y="24" type="curve" smooth="yes"/>
      <point x="355" y="5"/>
      <point x="335" y="-3"/>
      <point x="317" y="-3" type="curve" smooth="yes"/>
      <point x="294" y="-3"/>
      <point x="279" y="17"/>
      <point x="279" y="47" type="curve" smooth="yes"/>
      <point x="279" y="340" type="line" smooth="yes"/>
      <point x="279" y="387"/>
      <point x="247" y="414"/>
      <point x="204" y="414" type="curve" smooth="yes"/>
      <point x="173" y="414"/>
      <point x="113" y="383"/>
      <point x="81" y="354" type="curve" smooth="yes"/>
      <point x="67" y="341"/>
      <point x="59" y="330"/>
      <point x="59" y="320" type="curve" smooth="yes"/>
      <point x="59" y="317"/>
      <point x="61" y="316"/>
      <point x="66" y="316" type="curve" smooth="yes"/>
      <point x="79" y="316"/>
      <point x="96" y="329"/>
      <point x="96" y="334" type="curve" smooth="yes"/>
      <point x="96" y="337"/>
      <point x="96" y="341"/>
      <point x="96" y="345" type="curve" smooth="yes"/>
      <point x="96" y="352"/>
      <point x="98" y="354"/>
      <point x="104" y="360" type="curve" smooth="yes"/>
      <point x="137" y="390"/>
      <point x="175" y="404"/>
      <point x="203" y="404" type="curve" smooth="yes"/>
      <point x="242" y="404"/>
      <point x="270" y="375"/>
      <point x="270" y="325" type="curve" smooth="yes"/>
      <point x="270" y="240" type="line" smooth="yes"/>
      <point x="269" y="213"/>
      <point x="268" y="210"/>
      <point x="243" y="200" type="curve" smooth="yes"/>
      <point x="151" y="165" type="line" smooth="yes"/>
      <point x="86" y="140"/>
      <point x="59" y="114"/>
      <point x="59" y="77" type="curve" smooth="yes"/>
      <point x="59" y="19"/>
      <point x="107" y="-14"/>
    </contour>
    <contour>
      <point x="154" y="-4" type="curve" smooth="yes"/>
      <point x="113" y="-4"/>
      <point x="68" y="22"/>
      <point x="68" y="78" type="curve" smooth="yes"/>
      <point x="68" y="109"/>
      <point x="94" y="142"/>
      <point x="223" y="182" type="curve" smooth="yes"/>
      <point x="240" y="187"/>
      <point x="250" y="192"/>
      <point x="254" y="192" type="curve" smooth="yes"/>
      <point x="266" y="192"/>
      <point x="269" y="184"/>
      <point x="269" y="163" type="curve" smooth="yes"/>
      <point x="268" y="78" type="line" smooth="yes"/>
      <point x="268" y="56"/>
      <point x="263" y="48"/>
      <point x="255" y="42" type="curve" smooth="yes"/>
      <point x="226" y="19"/>
      <point x="194" y="-4"/>
    </contour>
  </outline>
</glyph>
<glyph name="b" format="1">
  <advance width="515"/>
  <unicode hex="0062"/>
  <outline>
    <contour>
      <point x="221" y="-14" type="curve" smooth="yes"/>
      <point x="349" y="-14"/>
      <point x="441" y="80"/>
      <point x="441" y="211" type="curve" smooth="yes"/>
      <point x="441" y="333"/>
      <point x="364" y="414"/>
      <point x="261" y="414" type="curve" smooth="yes"/>
      <point x="219" y="414"/>
      <point x="158" y="389"/>
      <point x="118" y="355" type="curve"/>
      <point x="111" y="356"/>
      <point x="110" y="362"/>
      <point x="110" y="388" type="curve" smooth="yes"/>
      <point x="110" y="593" type="line" smooth="yes"/>
      <point x="110" y="649"/>
      <point x="113" y="693"/>
      <point x="113" y="698" type="curve" smooth="yes"/>
      <point x="113" y="702"/>
      <point x="110" y="705"/>
      <point x="106" y="705" type="curve" smooth="yes"/>
      <point x="103" y="705"/>
      <point x="98" y="700"/>
      <point x="98" y="687" type="curve" smooth="yes"/>
      <point x="98" y="661"/>
      <point x="87" y="653"/>
      <point x="42" y="653" type="curve" smooth="yes"/>
      <point x="35" y="653"/>
      <point x="30" y="650"/>
      <point x="30" y="646" type="curve" smooth="yes"/>
      <point x="30" y="640"/>
      <point x="38" y="640"/>
      <point x="44" y="640" type="curve" smooth="yes"/>
      <point x="97" y="640"/>
      <point x="100" y="620"/>
      <point x="100" y="580" type="curve" smooth="yes"/>
      <point x="100" y="81" type="line" smooth="yes"/>
      <point x="100" y="56"/>
      <point x="94" y="21"/>
      <point x="94" y="9" type="curve" smooth="yes"/>
      <point x="94" y="2"/>
      <point x="98" y="-3"/>
      <point x="103" y="-3" type="curve" smooth="yes"/>
      <point x="106" y="-3"/>
      <point x="107" y="0"/>
      <point x="109" y="3" type="curve" smooth="yes"/>
      <point x="113" y="9"/>
      <point x="117" y="15"/>
      <point x="124" y="15" type="curve" smooth="yes"/>
      <point x="135" y="15"/>
      <point x="149" y="9"/>
      <point x="163" y="3" type="curve" smooth="yes"/>
      <point x="182" y="-5"/>
      <point x="203" y="-14"/>
    </contour>
    <contour>
      <point x="234" y="-3" type="curve" smooth="yes"/>
      <point x="163" y="-3"/>
      <point x="110" y="35"/>
      <point x="110" y="88" type="curve" smooth="yes"/>
      <point x="110" y="336" type="line"/>
      <point x="141" y="374"/>
      <point x="218" y="405"/>
      <point x="266" y="405" type="curve" smooth="yes"/>
      <point x="372" y="405"/>
      <point x="432" y="294"/>
      <point x="432" y="201" type="curve" smooth="yes"/>
      <point x="432" y="83"/>
      <point x="342" y="-3"/>
    </contour>
  </outline>
</glyph>
<glyph name="c" format="1">
  <advance width="407"/>
  <unicode hex="0063"/>
  <outline>
    <contour>
      <point x="218" y="-14" type="curve" smooth="yes"/>
      <point x="271" y="-14"/>
      <point x="319" y="6"/>
      <point x="350" y="48" type="curve" smooth="yes"/>
      <point x="358" y="59"/>
      <point x="367" y="77"/>
      <point x="367" y="85" type="curve" smooth="yes"/>
      <point x="367" y="89"/>
      <point x="365" y="91"/>
      <point x="362" y="91" type="curve" smooth="yes"/>
      <point x="359" y="91"/>
      <point x="357" y="80"/>
      <point x="348" y="66" type="curve" smooth="yes"/>
      <point x="311" y="9"/>
      <point x="271" y="-2"/>
      <point x="226" y="-2" type="curve" smooth="yes"/>
      <point x="136" y="-2"/>
      <point x="74" y="82"/>
      <point x="74" y="191" type="curve" smooth="yes"/>
      <point x="74" y="319"/>
      <point x="155" y="405"/>
      <point x="250" y="405" type="curve" smooth="yes"/>
      <point x="271" y="405"/>
      <point x="306" y="391"/>
      <point x="325" y="368" type="curve" smooth="yes"/>
      <point x="330" y="362"/>
      <point x="335" y="357"/>
      <point x="340" y="357" type="curve" smooth="yes"/>
      <point x="346" y="357"/>
      <point x="351" y="360"/>
      <point x="351" y="370" type="curve" smooth="yes"/>
      <point x="351" y="374"/>
      <point x="350" y="377"/>
      <point x="347" y="380" type="curve"/>
      <point x="315" y="403"/>
      <point x="276" y="414"/>
      <point x="247" y="414" type="curve" smooth="yes"/>
      <point x="144" y="414"/>
      <point x="61" y="310"/>
      <point x="61" y="180" type="curve" smooth="yes"/>
      <point x="61" y="69"/>
      <point x="129" y="-14"/>
    </contour>
  </outline>
</glyph>
<glyph name="f" format="1">
  <advance width="318"/>
  <unicode hex="0066"/>
  <outline>
    <contour>
      <point x="74" y="-3" type="curve" smooth="yes"/>
      <point x="101" y="-3"/>
      <point x="106" y="2"/>
      <point x="130" y="2" type="curve" smooth="yes"/>
      <point x="154" y="2"/>
      <point x="162" y="-3"/>
      <point x="189" y="-3" type="curve" smooth="yes"/>
      <point x="202" y="-3"/>
      <point x="209" y="-2"/>
      <point x="209" y="0" type="curve" smooth="yes"/>
      <point x="209" y="2"/>
      <point x="200" y="3"/>
      <point x="186" y="4" type="curve" smooth="yes"/>
      <point x="132" y="8"/>
      <point x="130" y="8"/>
      <point x="130" y="68" type="curve" smooth="yes"/>
      <point x="130" y="376" type="line" smooth="yes"/>
      <point x="130" y="391"/>
      <point x="133" y="392"/>
      <point x="149" y="392" type="curve" smooth="yes"/>
      <point x="264" y="392" type="line" smooth="yes"/>
      <point x="267" y="392"/>
      <point x="271" y="392"/>
      <point x="273" y="393" type="curve" smooth="yes"/>
      <point x="277" y="395"/>
      <point x="279" y="396"/>
      <point x="279" y="398" type="curve" smooth="yes"/>
      <point x="279" y="399"/>
      <point x="273" y="400"/>
      <point x="266" y="400" type="curve" smooth="yes"/>
      <point x="142" y="400" type="line" smooth="yes"/>
      <point x="136" y="400"/>
      <point x="131" y="400"/>
      <point x="131" y="410" type="curve" smooth="yes"/>
      <point x="131" y="478" type="line" smooth="yes"/>
      <point x="131" y="621"/>
      <point x="209" y="691"/>
      <point x="283" y="691" type="curve" smooth="yes"/>
      <point x="339" y="691"/>
      <point x="356" y="668"/>
      <point x="365" y="649" type="curve" smooth="yes"/>
      <point x="371" y="637"/>
      <point x="378" y="626"/>
      <point x="382" y="626" type="curve" smooth="yes"/>
      <point x="388" y="626"/>
      <point x="392" y="633"/>
      <point x="392" y="642" type="curve" smooth="yes"/>
      <point x="391" y="666"/>
      <point x="367" y="706"/>
      <point x="300" y="706" type="curve" smooth="yes"/>
      <point x="236" y="706"/>
      <point x="120" y="668"/>
      <point x="120" y="446" type="curve" smooth="yes"/>
      <point x="120" y="401" type="line"/>
      <point x="100" y="399"/>
      <point x="89" y="400"/>
      <point x="65" y="398" type="curve" smooth="yes"/>
      <point x="63" y="398"/>
      <point x="54" y="397"/>
      <point x="54" y="395" type="curve" smooth="yes"/>
      <point x="54" y="393"/>
      <point x="60" y="392"/>
      <point x="68" y="392" type="curve" smooth="yes"/>
      <point x="89" y="392"/>
      <point x="107" y="391"/>
      <point x="120" y="391" type="curve"/>
      <point x="120" y="68" type="line" smooth="yes"/>
      <point x="120" y="13"/>
      <point x="110" y="12"/>
      <point x="77" y="7" type="curve" smooth="yes"/>
      <point x="65" y="5"/>
      <point x="54" y="5"/>
      <point x="54" y="1" type="curve" smooth="yes"/>
      <point x="54" y="-2"/>
      <point x="61" y="-3"/>
    </contour>
  </outline>
</glyph>
<glyph name="g" format="1">
  <advance width="435"/>
  <unicode hex="0067"/>
  <outline>
    <contour>
      <point x="309" y="-290"/>
      <point x="397" y="-200"/>
      <point x="397" y="-98" type="curve" smooth="yes"/>
      <point x="397" y="-32"/>
      <point x="328" y="-7"/>
      <point x="208" y="0" type="curve" smooth="yes"/>
      <point x="108" y="6"/>
      <point x="55" y="24"/>
      <point x="55" y="65" type="curve" smooth="yes"/>
      <point x="55" y="86"/>
      <point x="115" y="112"/>
      <point x="140" y="136" type="curve"/>
      <point x="131" y="143" type="line"/>
      <point x="121" y="127"/>
      <point x="112" y="125"/>
      <point x="69" y="93" type="curve" smooth="yes"/>
      <point x="54" y="82"/>
      <point x="47" y="73"/>
      <point x="47" y="61" type="curve" smooth="yes"/>
      <point x="47" y="17"/>
      <point x="87" y="-1"/>
      <point x="206" y="-9" type="curve" smooth="yes"/>
      <point x="335" y="-18"/>
      <point x="388" y="-44"/>
      <point x="388" y="-101" type="curve" smooth="yes"/>
      <point x="388" y="-159"/>
      <point x="357" y="-206"/>
      <point x="318" y="-238" type="curve" smooth="yes"/>
      <point x="289" y="-262"/>
      <point x="257" y="-281"/>
      <point x="209" y="-281" type="curve" smooth="yes"/>
      <point x="115" y="-281"/>
      <point x="59" y="-231"/>
      <point x="59" y="-159" type="curve" smooth="yes"/>
      <point x="59" y="-104"/>
      <point x="110" y="-54"/>
      <point x="171" y="-2" type="curve"/>
      <point x="158" y="-3" type="line"/>
      <point x="130" y="-34"/>
      <point x="94" y="-65"/>
      <point x="78" y="-83" type="curve" smooth="yes"/>
      <point x="59" y="-105"/>
      <point x="50" y="-130"/>
      <point x="50" y="-170" type="curve" smooth="yes"/>
      <point x="50" y="-244"/>
      <point x="110" y="-290"/>
      <point x="207" y="-290" type="curve" smooth="yes"/>
    </contour>
    <contour>
      <point x="143" y="115"/>
      <point x="85" y="185"/>
      <point x="85" y="268" type="curve" smooth="yes"/>
      <point x="85" y="342"/>
      <point x="139" y="407"/>
      <point x="201" y="407" type="curve" smooth="yes"/>
      <point x="291" y="407"/>
      <point x="325" y="381"/>
      <point x="325" y="274" type="curve" smooth="yes"/>
      <point x="325" y="184"/>
      <point x="275" y="115"/>
      <point x="211" y="115" type="curve" smooth="yes"/>
    </contour>
    <contour>
      <point x="285" y="106"/>
      <point x="335" y="187"/>
      <point x="335" y="295" type="curve" smooth="yes"/>
      <point x="335" y="332"/>
      <point x="318" y="372"/>
      <point x="327" y="376" type="curve" smooth="yes"/>
      <point x="329" y="377"/>
      <point x="337" y="378"/>
      <point x="352" y="378" type="curve" smooth="yes"/>
      <point x="392" y="378" type="line"/>
      <point x="394" y="378"/>
      <point x="399" y="379"/>
      <point x="402" y="380" type="curve" smooth="yes"/>
      <point x="407" y="382"/>
      <point x="407" y="382"/>
      <point x="407" y="383" type="curve" smooth="yes"/>
      <point x="407" y="386"/>
      <point x="402" y="388"/>
      <point x="396" y="388" type="curve" smooth="yes"/>
      <point x="388" y="388"/>
      <point x="364" y="387"/>
      <point x="351" y="387" type="curve" smooth="yes"/>
      <point x="335" y="387"/>
      <point x="304" y="387"/>
      <point x="295" y="392" type="curve" smooth="yes"/>
      <point x="275" y="403"/>
      <point x="252" y="416"/>
      <point x="215" y="416" type="curve" smooth="yes"/>
      <point x="139" y="416"/>
      <point x="76" y="352"/>
      <point x="76" y="258" type="curve" smooth="yes"/>
      <point x="76" y="176"/>
      <point x="143" y="106"/>
      <point x="210" y="106" type="curve" smooth="yes"/>
    </contour>
  </outline>
</glyph>
<glyph name="h" format="1">
  <advance width="515"/>
  <unicode hex="0068"/>
  <outline>
    <contour>
      <point x="79" y="-3"/>
      <point x="84" y="-1"/>
      <point x="112" y="-1" type="curve" smooth="yes"/>
      <point x="140" y="-1"/>
      <point x="145" y="-3"/>
      <point x="177" y="-3" type="curve" smooth="yes"/>
      <point x="187" y="-3"/>
      <point x="193" y="-2"/>
      <point x="193" y="0" type="curve" smooth="yes"/>
      <point x="193" y="3"/>
      <point x="187" y="4"/>
      <point x="174" y="5" type="curve" smooth="yes"/>
      <point x="137" y="8"/>
      <point x="117" y="11"/>
      <point x="117" y="37" type="curve" smooth="yes"/>
      <point x="117" y="300" type="line" smooth="yes"/>
      <point x="117" y="324"/>
      <point x="121" y="338"/>
      <point x="128" y="345" type="curve" smooth="yes"/>
      <point x="163" y="380"/>
      <point x="208" y="405"/>
      <point x="270" y="405" type="curve" smooth="yes"/>
      <point x="340" y="405"/>
      <point x="386" y="354"/>
      <point x="386" y="272" type="curve" smooth="yes"/>
      <point x="386" y="44" type="line" smooth="yes"/>
      <point x="386" y="13"/>
      <point x="377" y="11"/>
      <point x="328" y="5" type="curve" smooth="yes"/>
      <point x="320" y="4"/>
      <point x="310" y="3"/>
      <point x="310" y="0" type="curve" smooth="yes"/>
      <point x="310" y="-3"/>
      <point x="320" y="-3"/>
      <point x="326" y="-3" type="curve" smooth="yes"/>
      <point x="358" y="-3"/>
      <point x="364" y="-1"/>
      <point x="392" y="-1" type="curve" smooth="yes"/>
      <point x="420" y="-1"/>
      <point x="424" y="-3"/>
      <point x="456" y="-3" type="curve" smooth="yes"/>
      <point x="462" y="-3"/>
      <point x="472" y="-3"/>
      <point x="472" y="0" type="curve" smooth="yes"/>
      <point x="472" y="3"/>
      <point x="462" y="4"/>
      <point x="454" y="5" type="curve" smooth="yes"/>
      <point x="405" y="11"/>
      <point x="396" y="14"/>
      <point x="396" y="44" type="curve" smooth="yes"/>
      <point x="396" y="275" type="line" smooth="yes"/>
      <point x="396" y="353"/>
      <point x="347" y="414"/>
      <point x="280" y="414" type="curve" smooth="yes"/>
      <point x="215" y="414"/>
      <point x="158" y="390"/>
      <point x="115" y="346" type="curve"/>
      <point x="120" y="347" type="line"/>
      <point x="118" y="350"/>
      <point x="117" y="355"/>
      <point x="117" y="361" type="curve"/>
      <point x="117" y="586" type="line"/>
      <point x="117" y="624"/>
      <point x="117" y="663"/>
      <point x="117" y="701" type="curve"/>
      <point x="117" y="705"/>
      <point x="115" y="708"/>
      <point x="113" y="708" type="curve" smooth="yes"/>
      <point x="113" y="708"/>
      <point x="106" y="707"/>
      <point x="106" y="703" type="curve" smooth="yes"/>
      <point x="106" y="656"/>
      <point x="96" y="652"/>
      <point x="46" y="652" type="curve" smooth="yes"/>
      <point x="32" y="652"/>
      <point x="31" y="652"/>
      <point x="31" y="645" type="curve" smooth="yes"/>
      <point x="31" y="640"/>
      <point x="36" y="640"/>
      <point x="50" y="640" type="curve" smooth="yes"/>
      <point x="99" y="640"/>
      <point x="107" y="631"/>
      <point x="107" y="585" type="curve" smooth="yes"/>
      <point x="107" y="37" type="line" smooth="yes"/>
      <point x="107" y="11"/>
      <point x="88" y="8"/>
      <point x="50" y="5" type="curve" smooth="yes"/>
      <point x="38" y="4"/>
      <point x="31" y="4"/>
      <point x="31" y="0" type="curve" smooth="yes"/>
      <point x="31" y="-2"/>
      <point x="38" y="-3"/>
      <point x="47" y="-3" type="curve" smooth="yes"/>
    </contour>
  </outline>
</glyph>
<glyph name="i" format="1">
  <advance width="245"/>
  <unicode hex="0069"/>
  <outline>
    <contour>
      <point x="67" y="-3" type="curve" smooth="yes"/>
      <point x="95" y="-3"/>
      <point x="100" y="2"/>
      <point x="125" y="2" type="curve" smooth="yes"/>
      <point x="150" y="2"/>
      <point x="156" y="-3"/>
      <point x="183" y="-3" type="curve" smooth="yes"/>
      <point x="198" y="-3"/>
      <point x="206" y="-2"/>
      <point x="206" y="0" type="curve" smooth="yes"/>
      <point x="206" y="4"/>
      <point x="192" y="5"/>
      <point x="180" y="6" type="curve" smooth="yes"/>
      <point x="148" y="10"/>
      <point x="130" y="17"/>
      <point x="130" y="32" type="curve" smooth="yes"/>
      <point x="130" y="294" type="line" smooth="yes"/>
      <point x="130" y="339"/>
      <point x="138" y="413"/>
      <point x="138" y="429" type="curve" smooth="yes"/>
      <point x="138" y="432"/>
      <point x="136" y="434"/>
      <point x="132" y="434" type="curve" smooth="yes"/>
      <point x="129" y="434"/>
      <point x="125" y="431"/>
      <point x="125" y="427" type="curve" smooth="yes"/>
      <point x="125" y="375"/>
      <point x="119" y="373"/>
      <point x="53" y="374" type="curve" smooth="yes"/>
      <point x="47" y="374"/>
      <point x="44" y="373"/>
      <point x="44" y="369" type="curve" smooth="yes"/>
      <point x="44" y="364"/>
      <point x="47" y="362"/>
      <point x="54" y="362" type="curve" smooth="yes"/>
      <point x="116" y="362"/>
      <point x="120" y="353"/>
      <point x="120" y="317" type="curve" smooth="yes"/>
      <point x="120" y="32" type="line" smooth="yes"/>
      <point x="120" y="15"/>
      <point x="103" y="10"/>
      <point x="70" y="6" type="curve" smooth="yes"/>
      <point x="58" y="5"/>
      <point x="44" y="4"/>
      <point x="44" y="0" type="curve" smooth="yes"/>
      <point x="44" y="-2"/>
      <point x="53" y="-3"/>
    </contour>
    <contour>
      <point x="123" y="541" type="curve" smooth="yes"/>
      <point x="140" y="541"/>
      <point x="150" y="551"/>
      <point x="150" y="565" type="curve" smooth="yes"/>
      <point x="150" y="582"/>
      <point x="140" y="592"/>
      <point x="123" y="592" type="curve" smooth="yes"/>
      <point x="109" y="592"/>
      <point x="99" y="582"/>
      <point x="99" y="565" type="curve" smooth="yes"/>
      <point x="99" y="551"/>
      <point x="109" y="541"/>
    </contour>
  </outline>
</glyph>
<glyph name="k" format="1">
  <advance width="469"/>
  <unicode hex="006B"/>
  <outline>
    <contour>
      <point x="47" y="-3" type="curve" smooth="yes"/>
      <point x="79" y="-3"/>
      <point x="84" y="-1"/>
      <point x="112" y="-1" type="curve" smooth="yes"/>
      <point x="140" y="-1"/>
      <point x="145" y="-3"/>
      <point x="177" y="-3" type="curve" smooth="yes"/>
      <point x="187" y="-3"/>
      <point x="193" y="-2"/>
      <point x="193" y="0" type="curve" smooth="yes"/>
      <point x="193" y="3"/>
      <point x="187" y="4"/>
      <point x="174" y="5" type="curve" smooth="yes"/>
      <point x="137" y="8"/>
      <point x="117" y="11"/>
      <point x="117" y="37" type="curve" smooth="yes"/>
      <point x="117" y="69"/>
      <point x="117" y="100"/>
      <point x="117" y="132" type="curve" smooth="yes"/>
      <point x="117" y="157"/>
      <point x="117" y="176"/>
      <point x="117" y="201" type="curve" smooth="yes"/>
      <point x="117" y="207"/>
      <point x="119" y="209"/>
      <point x="123" y="209" type="curve" smooth="yes"/>
      <point x="128" y="209"/>
      <point x="131" y="208"/>
      <point x="135" y="205" type="curve" smooth="yes"/>
      <point x="323" y="43" type="line" smooth="yes"/>
      <point x="330" y="37"/>
      <point x="333" y="32"/>
      <point x="333" y="27" type="curve" smooth="yes"/>
      <point x="333" y="19"/>
      <point x="321" y="12"/>
      <point x="300" y="8" type="curve" smooth="yes"/>
      <point x="289" y="7"/>
      <point x="278" y="5"/>
      <point x="278" y="3" type="curve" smooth="yes"/>
      <point x="278" y="1"/>
      <point x="284" y="0"/>
      <point x="302" y="0" type="curve" smooth="yes"/>
      <point x="340" y="0"/>
      <point x="379" y="-3"/>
      <point x="431" y="-3" type="curve" smooth="yes"/>
      <point x="443" y="-3"/>
      <point x="451" y="-2"/>
      <point x="451" y="1" type="curve" smooth="yes"/>
      <point x="451" y="4"/>
      <point x="434" y="6"/>
      <point x="421" y="7" type="curve" smooth="yes"/>
      <point x="394" y="9"/>
      <point x="352" y="35"/>
      <point x="328" y="54" type="curve" smooth="yes"/>
      <point x="306" y="72"/>
      <point x="196" y="161"/>
      <point x="145" y="209" type="curve" smooth="yes"/>
      <point x="143" y="211"/>
      <point x="140" y="214"/>
      <point x="140" y="216" type="curve" smooth="yes"/>
      <point x="140" y="219"/>
      <point x="142" y="222"/>
      <point x="146" y="225" type="curve" smooth="yes"/>
      <point x="199" y="269"/>
      <point x="298" y="359"/>
      <point x="312" y="368" type="curve" smooth="yes"/>
      <point x="330" y="380"/>
      <point x="373" y="400"/>
      <point x="397" y="402" type="curve" smooth="yes"/>
      <point x="411" y="403"/>
      <point x="422" y="406"/>
      <point x="422" y="408" type="curve" smooth="yes"/>
      <point x="422" y="411"/>
      <point x="417" y="412"/>
      <point x="408" y="412" type="curve" smooth="yes"/>
      <point x="389" y="412"/>
      <point x="348" y="400"/>
      <point x="317" y="400" type="curve" smooth="yes"/>
      <point x="268" y="400" type="line" smooth="yes"/>
      <point x="254" y="400"/>
      <point x="246" y="399"/>
      <point x="246" y="397" type="curve" smooth="yes"/>
      <point x="246" y="394"/>
      <point x="252" y="392"/>
      <point x="260" y="391" type="curve" smooth="yes"/>
      <point x="285" y="388"/>
      <point x="294" y="385"/>
      <point x="294" y="377" type="curve" smooth="yes"/>
      <point x="294" y="371"/>
      <point x="292" y="367"/>
      <point x="285" y="360" type="curve" smooth="yes"/>
      <point x="266" y="341"/>
      <point x="201" y="284"/>
      <point x="154" y="241" type="curve" smooth="yes"/>
      <point x="140" y="228"/>
      <point x="130" y="221"/>
      <point x="122" y="221" type="curve" smooth="yes"/>
      <point x="119" y="221"/>
      <point x="117" y="224"/>
      <point x="117" y="230" type="curve" smooth="yes"/>
      <point x="117" y="586" type="line"/>
      <point x="117" y="624"/>
      <point x="117" y="663"/>
      <point x="117" y="701" type="curve"/>
      <point x="117" y="705"/>
      <point x="115" y="708"/>
      <point x="113" y="708" type="curve" smooth="yes"/>
      <point x="113" y="708"/>
      <point x="106" y="707"/>
      <point x="106" y="703" type="curve" smooth="yes"/>
      <point x="106" y="656"/>
      <point x="96" y="652"/>
      <point x="46" y="652" type="curve" smooth="yes"/>
      <point x="32" y="652"/>
      <point x="31" y="652"/>
      <point x="31" y="645" type="curve" smooth="yes"/>
      <point x="31" y="640"/>
      <point x="36" y="640"/>
      <point x="50" y="640" type="curve" smooth="yes"/>
      <point x="99" y="640"/>
      <point x="107" y="631"/>
      <point x="107" y="585" type="curve" smooth="yes"/>
      <point x="107" y="37" type="line" smooth="yes"/>
      <point x="107" y="11"/>
      <point x="88" y="8"/>
      <point x="50" y="5" type="curve" smooth="yes"/>
      <point x="38" y="4"/>
      <point x="31" y="4"/>
      <point x="31" y="0" type="curve" smooth="yes"/>
      <point x="31" y="-2"/>
      <point x="38" y="-3"/>
    </contour>
  </outline>
</glyph>
<glyph name="n" format="1">
  <advance width="528"/>
  <unicode hex="006E"/>
  <outline>
    <contour>
      <point x="60" y="-3" type="curve" smooth="yes"/>
      <point x="92" y="-3"/>
      <point x="97" y="-1"/>
      <point x="125" y="-1" type="curve" smooth="yes"/>
      <point x="153" y="-1"/>
      <point x="158" y="-3"/>
      <point x="190" y="-3" type="curve" smooth="yes"/>
      <point x="200" y="-3"/>
      <point x="206" y="-2"/>
      <point x="206" y="0" type="curve" smooth="yes"/>
      <point x="206" y="3"/>
      <point x="200" y="4"/>
      <point x="187" y="5" type="curve" smooth="yes"/>
      <point x="150" y="7"/>
      <point x="130" y="11"/>
      <point x="130" y="37" type="curve" smooth="yes"/>
      <point x="130" y="303" type="line" smooth="yes"/>
      <point x="130" y="327"/>
      <point x="134" y="341"/>
      <point x="141" y="348" type="curve" smooth="yes"/>
      <point x="177" y="381"/>
      <point x="221" y="405"/>
      <point x="283" y="405" type="curve" smooth="yes"/>
      <point x="353" y="404"/>
      <point x="399" y="354"/>
      <point x="399" y="272" type="curve" smooth="yes"/>
      <point x="399" y="44" type="line" smooth="yes"/>
      <point x="399" y="13"/>
      <point x="390" y="10"/>
      <point x="341" y="5" type="curve" smooth="yes"/>
      <point x="333" y="4"/>
      <point x="323" y="3"/>
      <point x="323" y="0" type="curve" smooth="yes"/>
      <point x="323" y="-3"/>
      <point x="333" y="-3"/>
      <point x="339" y="-3" type="curve" smooth="yes"/>
      <point x="371" y="-3"/>
      <point x="377" y="-1"/>
      <point x="405" y="-1" type="curve" smooth="yes"/>
      <point x="433" y="-1"/>
      <point x="437" y="-3"/>
      <point x="469" y="-3" type="curve" smooth="yes"/>
      <point x="475" y="-3"/>
      <point x="485" y="-3"/>
      <point x="485" y="0" type="curve" smooth="yes"/>
      <point x="485" y="3"/>
      <point x="475" y="4"/>
      <point x="467" y="5" type="curve" smooth="yes"/>
      <point x="418" y="9"/>
      <point x="409" y="14"/>
      <point x="409" y="44" type="curve" smooth="yes"/>
      <point x="409" y="275" type="line" smooth="yes"/>
      <point x="409" y="353"/>
      <point x="360" y="414"/>
      <point x="293" y="414" type="curve" smooth="yes"/>
      <point x="227" y="414"/>
      <point x="175" y="392"/>
      <point x="127" y="347" type="curve"/>
      <point x="126" y="348"/>
      <point x="125" y="353"/>
      <point x="125" y="359" type="curve" smooth="yes"/>
      <point x="125" y="378"/>
      <point x="130" y="414"/>
      <point x="130" y="423" type="curve" smooth="yes"/>
      <point x="130" y="427"/>
      <point x="128" y="430"/>
      <point x="126" y="430" type="curve" smooth="yes"/>
      <point x="126" y="430"/>
      <point x="119" y="429"/>
      <point x="119" y="425" type="curve" smooth="yes"/>
      <point x="119" y="378"/>
      <point x="109" y="374"/>
      <point x="59" y="374" type="curve" smooth="yes"/>
      <point x="45" y="374"/>
      <point x="44" y="374"/>
      <point x="44" y="367" type="curve" smooth="yes"/>
      <point x="44" y="362"/>
      <point x="49" y="362"/>
      <point x="63" y="362" type="curve" smooth="yes"/>
      <point x="112" y="362"/>
      <point x="120" y="353"/>
      <point x="120" y="307" type="curve" smooth="yes"/>
      <point x="120" y="37" type="line" smooth="yes"/>
      <point x="120" y="11"/>
      <point x="101" y="8"/>
      <point x="63" y="5" type="curve" smooth="yes"/>
      <point x="51" y="4"/>
      <point x="44" y="4"/>
      <point x="44" y="0" type="curve" smooth="yes"/>
      <point x="44" y="-2"/>
      <point x="51" y="-3"/>
    </contour>
  </outline>
</glyph>
<glyph name="p" format="1">
  <advance width="519"/>
  <unicode hex="0070"/>
  <outline>
    <contour>
      <point x="55" y="-285" type="curve" smooth="yes"/>
      <point x="84" y="-285"/>
      <point x="88" y="-284"/>
      <point x="112" y="-284" type="curve" smooth="yes"/>
      <point x="137" y="-284"/>
      <point x="152" y="-285"/>
      <point x="180" y="-285" type="curve" smooth="yes"/>
      <point x="186" y="-285"/>
      <point x="196" y="-285"/>
      <point x="196" y="-281" type="curve" smooth="yes"/>
      <point x="196" y="-278"/>
      <point x="187" y="-275"/>
      <point x="179" y="-275" type="curve" smooth="yes"/>
      <point x="141" y="-275"/>
      <point x="124" y="-267"/>
      <point x="124" y="-242" type="curve" smooth="yes"/>
      <point x="124" y="-33" type="line" smooth="yes"/>
      <point x="124" y="-27"/>
      <point x="125" y="28"/>
      <point x="128" y="28" type="curve"/>
      <point x="159" y="1"/>
      <point x="197" y="-14"/>
      <point x="233" y="-14" type="curve" smooth="yes"/>
      <point x="338" y="-14"/>
      <point x="445" y="83"/>
      <point x="445" y="225" type="curve" smooth="yes"/>
      <point x="445" y="319"/>
      <point x="393" y="414"/>
      <point x="289" y="414" type="curve" smooth="yes"/>
      <point x="225" y="414"/>
      <point x="144" y="367"/>
      <point x="126" y="348" type="curve"/>
      <point x="125" y="349"/>
      <point x="125" y="353"/>
      <point x="125" y="357" type="curve" smooth="yes"/>
      <point x="125" y="373"/>
      <point x="124" y="409"/>
      <point x="124" y="421" type="curve" smooth="yes"/>
      <point x="124" y="425"/>
      <point x="122" y="428"/>
      <point x="120" y="428" type="curve" smooth="yes"/>
      <point x="120" y="428"/>
      <point x="113" y="427"/>
      <point x="113" y="423" type="curve" smooth="yes"/>
      <point x="113" y="376"/>
      <point x="103" y="372"/>
      <point x="55" y="372" type="curve" smooth="yes"/>
      <point x="41" y="372"/>
      <point x="40" y="372"/>
      <point x="40" y="365" type="curve" smooth="yes"/>
      <point x="40" y="360"/>
      <point x="45" y="360"/>
      <point x="58" y="360" type="curve" smooth="yes"/>
      <point x="106" y="360"/>
      <point x="114" y="351"/>
      <point x="114" y="305" type="curve" smooth="yes"/>
      <point x="114" y="-242" type="line" smooth="yes"/>
      <point x="114" y="-267"/>
      <point x="98" y="-275"/>
      <point x="58" y="-275" type="curve" smooth="yes"/>
      <point x="50" y="-275"/>
      <point x="40" y="-278"/>
      <point x="40" y="-281" type="curve" smooth="yes"/>
      <point x="40" y="-285"/>
      <point x="51" y="-285"/>
    </contour>
    <contour>
      <point x="239" y="-5" type="curve" smooth="yes"/>
      <point x="153" y="-5"/>
      <point x="126" y="31"/>
      <point x="126" y="117" type="curve" smooth="yes"/>
      <point x="126" y="195"/>
      <point x="126" y="257"/>
      <point x="126" y="325" type="curve" smooth="yes"/>
      <point x="126" y="343"/>
      <point x="208" y="405"/>
      <point x="279" y="405" type="curve" smooth="yes"/>
      <point x="379" y="405"/>
      <point x="434" y="321"/>
      <point x="434" y="218" type="curve" smooth="yes"/>
      <point x="434" y="102"/>
      <point x="348" y="-5"/>
    </contour>
  </outline>
</glyph>
<glyph name="q" format="1">
  <advance width="522"/>
  <unicode hex="0071"/>
  <outline>
    <contour>
      <point x="346" y="-286" type="curve" smooth="yes"/>
      <point x="377" y="-286"/>
      <point x="381" y="-281"/>
      <point x="409" y="-281" type="curve" smooth="yes"/>
      <point x="436" y="-281"/>
      <point x="445" y="-286"/>
      <point x="476" y="-286" type="curve" smooth="yes"/>
      <point x="487" y="-286"/>
      <point x="492" y="-285"/>
      <point x="492" y="-283" type="curve" smooth="yes"/>
      <point x="492" y="-280"/>
      <point x="483" y="-279"/>
      <point x="469" y="-278" type="curve" smooth="yes"/>
      <point x="423" y="-275"/>
      <point x="416" y="-266"/>
      <point x="416" y="-227" type="curve" smooth="yes"/>
      <point x="416" y="319" type="line" smooth="yes"/>
      <point x="416" y="344"/>
      <point x="422" y="379"/>
      <point x="422" y="391" type="curve" smooth="yes"/>
      <point x="422" y="398"/>
      <point x="418" y="403"/>
      <point x="413" y="403" type="curve" smooth="yes"/>
      <point x="410" y="403"/>
      <point x="409" y="400"/>
      <point x="407" y="397" type="curve" smooth="yes"/>
      <point x="403" y="391"/>
      <point x="399" y="385"/>
      <point x="392" y="385" type="curve" smooth="yes"/>
      <point x="381" y="385"/>
      <point x="367" y="391"/>
      <point x="353" y="397" type="curve" smooth="yes"/>
      <point x="334" y="405"/>
      <point x="313" y="414"/>
      <point x="295" y="414" type="curve" smooth="yes"/>
      <point x="167" y="414"/>
      <point x="75" y="322"/>
      <point x="75" y="189" type="curve" smooth="yes"/>
      <point x="75" y="67"/>
      <point x="152" y="-14"/>
      <point x="255" y="-14" type="curve" smooth="yes"/>
      <point x="297" y="-14"/>
      <point x="358" y="11"/>
      <point x="398" y="45" type="curve"/>
      <point x="405" y="44"/>
      <point x="406" y="38"/>
      <point x="406" y="12" type="curve" smooth="yes"/>
      <point x="406" y="-227" type="line" smooth="yes"/>
      <point x="406" y="-267"/>
      <point x="396" y="-273"/>
      <point x="359" y="-277" type="curve" smooth="yes"/>
      <point x="342" y="-279"/>
      <point x="330" y="-279"/>
      <point x="330" y="-283" type="curve" smooth="yes"/>
      <point x="330" y="-285"/>
      <point x="335" y="-286"/>
    </contour>
    <contour>
      <point x="250" y="-5" type="curve" smooth="yes"/>
      <point x="144" y="-5"/>
      <point x="84" y="106"/>
      <point x="84" y="199" type="curve" smooth="yes"/>
      <point x="84" y="317"/>
      <point x="174" y="403"/>
      <point x="282" y="403" type="curve" smooth="yes"/>
      <point x="353" y="403"/>
      <point x="406" y="365"/>
      <point x="406" y="312" type="curve" smooth="yes"/>
      <point x="406" y="229"/>
      <point x="406" y="147"/>
      <point x="406" y="64" type="curve"/>
      <point x="375" y="26"/>
      <point x="298" y="-5"/>
    </contour>
  </outline>
</glyph>
<glyph name="r" format="1">
  <advance width="334"/>
  <unicode hex="0072"/>
  <outline>
    <contour>
      <point x="91" y="-3"/>
      <point x="95" y="2"/>
      <point x="123" y="2" type="curve" smooth="yes"/>
      <point x="150" y="2"/>
      <point x="159" y="-3"/>
      <point x="190" y="-3" type="curve" smooth="yes"/>
      <point x="201" y="-3"/>
      <point x="206" y="-2"/>
      <point x="206" y="0" type="curve" smooth="yes"/>
      <point x="206" y="3"/>
      <point x="197" y="4"/>
      <point x="183" y="5" type="curve" smooth="yes"/>
      <point x="137" y="8"/>
      <point x="130" y="17"/>
      <point x="130" y="56" type="curve" smooth="yes"/>
      <point x="130" y="303" type="line" smooth="yes"/>
      <point x="130" y="356"/>
      <point x="196" y="398"/>
      <point x="221" y="398" type="curve" smooth="yes"/>
      <point x="231" y="398"/>
      <point x="239" y="395"/>
      <point x="245" y="391" type="curve" smooth="yes"/>
      <point x="253" y="387"/>
      <point x="259" y="383"/>
      <point x="268" y="383" type="curve" smooth="yes"/>
      <point x="278" y="383"/>
      <point x="284" y="388"/>
      <point x="284" y="398" type="curve" smooth="yes"/>
      <point x="284" y="409"/>
      <point x="275" y="414"/>
      <point x="246" y="414" type="curve" smooth="yes"/>
      <point x="211" y="414"/>
      <point x="160" y="386"/>
      <point x="130" y="346" type="curve"/>
      <point x="129" y="346"/>
      <point x="128" y="347"/>
      <point x="128" y="348" type="curve"/>
      <point x="130" y="380"/>
      <point x="131" y="416"/>
      <point x="131" y="423" type="curve"/>
      <point x="131" y="427"/>
      <point x="129" y="430"/>
      <point x="126" y="430" type="curve" smooth="yes"/>
      <point x="124" y="430"/>
      <point x="119" y="429"/>
      <point x="118" y="412" type="curve" smooth="yes"/>
      <point x="117" y="385"/>
      <point x="114" y="374"/>
      <point x="55" y="374" type="curve" smooth="yes"/>
      <point x="46" y="374"/>
      <point x="43" y="371"/>
      <point x="43" y="368" type="curve" smooth="yes"/>
      <point x="43" y="364"/>
      <point x="49" y="363"/>
      <point x="58" y="362" type="curve" smooth="yes"/>
      <point x="112" y="359"/>
      <point x="120" y="347"/>
      <point x="120" y="318" type="curve" smooth="yes"/>
      <point x="120" y="56" type="line" smooth="yes"/>
      <point x="120" y="16"/>
      <point x="110" y="10"/>
      <point x="73" y="6" type="curve" smooth="yes"/>
      <point x="56" y="4"/>
      <point x="44" y="4"/>
      <point x="44" y="0" type="curve" smooth="yes"/>
      <point x="44" y="-2"/>
      <point x="49" y="-3"/>
      <point x="60" y="-3" type="curve" smooth="yes"/>
    </contour>
  </outline>
</glyph>
<glyph name="s" format="1">
  <advance width="323"/>
  <unicode hex="0073"/>
  <outline>
    <contour>
      <point x="154" y="-14" type="curve" smooth="yes"/>
      <point x="220" y="-14"/>
      <point x="265" y="25"/>
      <point x="265" y="96" type="curve" smooth="yes"/>
      <point x="265" y="162"/>
      <point x="226" y="192"/>
      <point x="169" y="217" type="curve" smooth="yes"/>
      <point x="118" y="239"/>
      <point x="75" y="267"/>
      <point x="75" y="317" type="curve" smooth="yes"/>
      <point x="75" y="376"/>
      <point x="115" y="403"/>
      <point x="169" y="403" type="curve" smooth="yes"/>
      <point x="217" y="403"/>
      <point x="248" y="382"/>
      <point x="261" y="318" type="curve" smooth="yes"/>
      <point x="262" y="313"/>
      <point x="265" y="309"/>
      <point x="267" y="309" type="curve" smooth="yes"/>
      <point x="269" y="309"/>
      <point x="271" y="311"/>
      <point x="271" y="316" type="curve" smooth="yes"/>
      <point x="271" y="344"/>
      <point x="262" y="380"/>
      <point x="252" y="395" type="curve"/>
      <point x="239" y="404"/>
      <point x="212" y="414"/>
      <point x="172" y="414" type="curve" smooth="yes"/>
      <point x="94" y="414"/>
      <point x="65" y="372"/>
      <point x="65" y="316" type="curve" smooth="yes"/>
      <point x="65" y="260"/>
      <point x="112" y="230"/>
      <point x="164" y="208" type="curve" smooth="yes"/>
      <point x="218" y="185"/>
      <point x="255" y="153"/>
      <point x="255" y="92" type="curve" smooth="yes"/>
      <point x="255" y="36"/>
      <point x="215" y="-3"/>
      <point x="159" y="-3" type="curve" smooth="yes"/>
      <point x="89" y="-3"/>
      <point x="66" y="26"/>
      <point x="50" y="104" type="curve" smooth="yes"/>
      <point x="49" y="109"/>
      <point x="47" y="111"/>
      <point x="45" y="111" type="curve" smooth="yes"/>
      <point x="41" y="111"/>
      <point x="39" y="108"/>
      <point x="39" y="102" type="curve"/>
      <point x="40" y="79"/>
      <point x="43" y="36"/>
      <point x="50" y="22" type="curve"/>
      <point x="75" y="-1"/>
      <point x="113" y="-14"/>
    </contour>
  </outline>
</glyph>
<glyph name="t" format="1">
  <advance width="314"/>
  <unicode hex="0074"/>
  <outline>
    <contour>
      <point x="186" y="-14" type="curve" smooth="yes"/>
      <point x="230" y="-14"/>
      <point x="279" y="28"/>
      <point x="279" y="38" type="curve" smooth="yes"/>
      <point x="279" y="43"/>
      <point x="277" y="44"/>
      <point x="274" y="44" type="curve" smooth="yes"/>
      <point x="272" y="44"/>
      <point x="267" y="39"/>
      <point x="260" y="33" type="curve" smooth="yes"/>
      <point x="244" y="19"/>
      <point x="216" y="-4"/>
      <point x="186" y="-4" type="curve" smooth="yes"/>
      <point x="143" y="-4"/>
      <point x="115" y="31"/>
      <point x="115" y="83" type="curve" smooth="yes"/>
      <point x="115" y="364" type="line" smooth="yes"/>
      <point x="115" y="373"/>
      <point x="120" y="373"/>
      <point x="125" y="373" type="curve" smooth="yes"/>
      <point x="249" y="373" type="line" smooth="yes"/>
      <point x="252" y="373"/>
      <point x="254" y="376"/>
      <point x="254" y="378" type="curve" smooth="yes"/>
      <point x="254" y="381"/>
      <point x="252" y="383"/>
      <point x="249" y="383" type="curve" smooth="yes"/>
      <point x="127" y="383" type="line" smooth="yes"/>
      <point x="118" y="383"/>
      <point x="115" y="384"/>
      <point x="115" y="393" type="curve" smooth="yes"/>
      <point x="115" y="422" type="line" smooth="yes"/>
      <point x="115" y="428"/>
      <point x="112" y="429"/>
      <point x="111" y="429" type="curve" smooth="yes"/>
      <point x="108" y="429"/>
      <point x="106" y="426"/>
      <point x="105" y="421" type="curve" smooth="yes"/>
      <point x="101" y="401"/>
      <point x="99" y="382"/>
      <point x="60" y="382" type="curve" smooth="yes"/>
      <point x="58" y="382"/>
      <point x="55" y="381"/>
      <point x="55" y="378" type="curve" smooth="yes"/>
      <point x="55" y="375"/>
      <point x="57" y="373"/>
      <point x="60" y="373" type="curve" smooth="yes"/>
      <point x="69" y="373" type="line" smooth="yes"/>
      <point x="98" y="373"/>
      <point x="105" y="371"/>
      <point x="105" y="367" type="curve" smooth="yes"/>
      <point x="105" y="87" type="line" smooth="yes"/>
      <point x="105" y="20"/>
      <point x="136" y="-14"/>
    </contour>
  </outline>
</glyph>
<glyph name="u" format="1">
  <advance width="527"/>
  <unicode hex="0075"/>
  <outline>
    <contour>
      <point x="390" y="-19" type="curve" smooth="yes"/>
      <point x="393" y="-19"/>
      <point x="398" y="-13"/>
      <point x="400" y="-12" type="curve" smooth="yes"/>
      <point x="410" y="-4"/>
      <point x="429" y="1"/>
      <point x="460" y="1" type="curve" smooth="yes"/>
      <point x="468" y="1"/>
      <point x="474" y="2"/>
      <point x="474" y="7" type="curve" smooth="yes"/>
      <point x="474" y="13"/>
      <point x="466" y="13"/>
      <point x="459" y="13" type="curve" smooth="yes"/>
      <point x="449" y="13"/>
      <point x="426" y="12"/>
      <point x="416" y="12" type="curve" smooth="yes"/>
      <point x="406" y="12"/>
      <point x="398" y="18"/>
      <point x="398" y="34" type="curve" smooth="yes"/>
      <point x="398" y="323" type="line" smooth="yes"/>
      <point x="398" y="350"/>
      <point x="399" y="366"/>
      <point x="403" y="395" type="curve" smooth="yes"/>
      <point x="403" y="398"/>
      <point x="404" y="401"/>
      <point x="404" y="404" type="curve" smooth="yes"/>
      <point x="405" y="411"/>
      <point x="401" y="414"/>
      <point x="398" y="414" type="curve" smooth="yes"/>
      <point x="396" y="414"/>
      <point x="392" y="411"/>
      <point x="391" y="406" type="curve" smooth="yes"/>
      <point x="385" y="377"/>
      <point x="376" y="374"/>
      <point x="328" y="374" type="curve" smooth="yes"/>
      <point x="324" y="374"/>
      <point x="319" y="373"/>
      <point x="319" y="367" type="curve" smooth="yes"/>
      <point x="319" y="364"/>
      <point x="324" y="362"/>
      <point x="331" y="362" type="curve" smooth="yes"/>
      <point x="380" y="362"/>
      <point x="388" y="349"/>
      <point x="388" y="315" type="curve" smooth="yes"/>
      <point x="388" y="110" type="line" smooth="yes"/>
      <point x="388" y="75"/>
      <point x="380" y="51"/>
      <point x="332" y="22" type="curve" smooth="yes"/>
      <point x="305" y="5"/>
      <point x="270" y="-6"/>
      <point x="231" y="-6" type="curve" smooth="yes"/>
      <point x="171" y="-6"/>
      <point x="128" y="43"/>
      <point x="128" y="105" type="curve" smooth="yes"/>
      <point x="128" y="323" type="line" smooth="yes"/>
      <point x="128" y="353"/>
      <point x="130" y="369"/>
      <point x="134" y="404" type="curve" smooth="yes"/>
      <point x="135" y="411"/>
      <point x="131" y="414"/>
      <point x="128" y="414" type="curve" smooth="yes"/>
      <point x="126" y="414"/>
      <point x="122" y="411"/>
      <point x="121" y="406" type="curve" smooth="yes"/>
      <point x="118" y="377"/>
      <point x="106" y="374"/>
      <point x="58" y="374" type="curve" smooth="yes"/>
      <point x="54" y="374"/>
      <point x="49" y="373"/>
      <point x="49" y="367" type="curve" smooth="yes"/>
      <point x="49" y="364"/>
      <point x="54" y="362"/>
      <point x="61" y="362" type="curve" smooth="yes"/>
      <point x="110" y="362"/>
      <point x="118" y="349"/>
      <point x="118" y="315" type="curve" smooth="yes"/>
      <point x="118" y="105" type="line" smooth="yes"/>
      <point x="118" y="27"/>
      <point x="165" y="-14"/>
      <point x="228" y="-14" type="curve" smooth="yes"/>
      <point x="288" y="-14"/>
      <point x="337" y="6"/>
      <point x="388" y="57" type="curve"/>
      <point x="388" y="55"/>
      <point x="388" y="53"/>
      <point x="388" y="51" type="curve" smooth="yes"/>
      <point x="388" y="34"/>
      <point x="383" y="2"/>
      <point x="383" y="-11" type="curve" smooth="yes"/>
      <point x="383" y="-16"/>
      <point x="385" y="-19"/>
    </contour>
  </outline>
</glyph>
<glyph name="v" format="1">
  <advance width="438"/>
  <unicode hex="0076"/>
  <outline>
    <contour>
      <point x="225" y="-19" type="curve"/>
      <point x="231" y="-19" type="line"/>
      <point x="343" y="327" type="line"/>
      <point x="359" y="379"/>
      <point x="367" y="390"/>
      <point x="403" y="392" type="curve" smooth="yes"/>
      <point x="418" y="393"/>
      <point x="426" y="396"/>
      <point x="426" y="401" type="curve" smooth="yes"/>
      <point x="426" y="405"/>
      <point x="417" y="405"/>
      <point x="407" y="405" type="curve" smooth="yes"/>
      <point x="389" y="405"/>
      <point x="386" y="400"/>
      <point x="353" y="400" type="curve" smooth="yes"/>
      <point x="321" y="400"/>
      <point x="299" y="405"/>
      <point x="285" y="405" type="curve" smooth="yes"/>
      <point x="276" y="405"/>
      <point x="266" y="404"/>
      <point x="266" y="400" type="curve" smooth="yes"/>
      <point x="266" y="396"/>
      <point x="274" y="392"/>
      <point x="295" y="390" type="curve" smooth="yes"/>
      <point x="330" y="387"/>
      <point x="341" y="380"/>
      <point x="341" y="365" type="curve" smooth="yes"/>
      <point x="340" y="357"/>
      <point x="337" y="346"/>
      <point x="332" y="331" type="curve" smooth="yes"/>
      <point x="229" y="0" type="line"/>
      <point x="228" y="-1"/>
      <point x="227" y="-1"/>
      <point x="226" y="0" type="curve"/>
      <point x="112" y="340" type="line" smooth="yes"/>
      <point x="108" y="351"/>
      <point x="105" y="360"/>
      <point x="105" y="366" type="curve" smooth="yes"/>
      <point x="105" y="383"/>
      <point x="121" y="388"/>
      <point x="158" y="391" type="curve" smooth="yes"/>
      <point x="170" y="392"/>
      <point x="182" y="394"/>
      <point x="182" y="400" type="curve" smooth="yes"/>
      <point x="182" y="404"/>
      <point x="169" y="405"/>
      <point x="162" y="405" type="curve" smooth="yes"/>
      <point x="130" y="405"/>
      <point x="129" y="400"/>
      <point x="100" y="400" type="curve" smooth="yes"/>
      <point x="71" y="400"/>
      <point x="72" y="405"/>
      <point x="40" y="405" type="curve" smooth="yes"/>
      <point x="33" y="405"/>
      <point x="20" y="404"/>
      <point x="20" y="400" type="curve" smooth="yes"/>
      <point x="20" y="395"/>
      <point x="27" y="393"/>
      <point x="38" y="391" type="curve" smooth="yes"/>
      <point x="73" y="385"/>
      <point x="87" y="377"/>
      <point x="100" y="339" type="curve" smooth="yes"/>
      <point x="131" y="248"/>
      <point x="161" y="158"/>
      <point x="192" y="67" type="curve"/>
      <point x="200" y="45"/>
      <point x="207" y="18"/>
      <point x="216" y="0" type="curve" smooth="yes"/>
      <point x="218" y="-4"/>
      <point x="223" y="-19"/>
    </contour>
  </outline>
</glyph>
<glyph name="w" format="1">
  <advance width="685"/>
  <unicode hex="0077"/>
  <outline>
    <contour>
      <point x="238" y="-19" type="curve" smooth="yes"/>
      <point x="239" y="-19"/>
      <point x="241" y="-17"/>
      <point x="242" y="-15" type="curve" smooth="yes"/>
      <point x="354" y="331" type="line" smooth="yes"/>
      <point x="354" y="332"/>
      <point x="355" y="333"/>
      <point x="356" y="333" type="curve" smooth="yes"/>
      <point x="357" y="333"/>
      <point x="358" y="332"/>
      <point x="358" y="331" type="curve"/>
      <point x="478" y="-16" type="line"/>
      <point x="479" y="-18"/>
      <point x="482" y="-19"/>
      <point x="483" y="-19" type="curve" smooth="yes"/>
      <point x="484" y="-19"/>
      <point x="486" y="-18"/>
      <point x="487" y="-16" type="curve" smooth="yes"/>
      <point x="598" y="327" type="line" smooth="yes"/>
      <point x="615" y="379"/>
      <point x="622" y="390"/>
      <point x="658" y="392" type="curve" smooth="yes"/>
      <point x="673" y="393"/>
      <point x="681" y="396"/>
      <point x="681" y="401" type="curve" smooth="yes"/>
      <point x="681" y="405"/>
      <point x="672" y="405"/>
      <point x="662" y="405" type="curve" smooth="yes"/>
      <point x="644" y="405"/>
      <point x="641" y="400"/>
      <point x="608" y="400" type="curve" smooth="yes"/>
      <point x="576" y="400"/>
      <point x="554" y="405"/>
      <point x="540" y="405" type="curve" smooth="yes"/>
      <point x="531" y="405"/>
      <point x="521" y="404"/>
      <point x="521" y="400" type="curve" smooth="yes"/>
      <point x="521" y="396"/>
      <point x="529" y="392"/>
      <point x="550" y="390" type="curve" smooth="yes"/>
      <point x="585" y="387"/>
      <point x="596" y="380"/>
      <point x="596" y="365" type="curve" smooth="yes"/>
      <point x="596" y="357"/>
      <point x="592" y="346"/>
      <point x="587" y="331" type="curve" smooth="yes"/>
      <point x="485" y="2" type="line" smooth="yes"/>
      <point x="484" y="0"/>
      <point x="484" y="-2"/>
      <point x="483" y="-2" type="curve" smooth="yes"/>
      <point x="482" y="-2"/>
      <point x="481" y="0"/>
      <point x="480" y="2" type="curve" smooth="yes"/>
      <point x="370" y="334" type="line" smooth="yes"/>
      <point x="367" y="344"/>
      <point x="365" y="352"/>
      <point x="366" y="359" type="curve" smooth="yes"/>
      <point x="366" y="386"/>
      <point x="390" y="390"/>
      <point x="413" y="392" type="curve" smooth="yes"/>
      <point x="428" y="393"/>
      <point x="436" y="396"/>
      <point x="436" y="401" type="curve" smooth="yes"/>
      <point x="436" y="405"/>
      <point x="427" y="405"/>
      <point x="417" y="405" type="curve" smooth="yes"/>
      <point x="399" y="405"/>
      <point x="396" y="400"/>
      <point x="363" y="400" type="curve" smooth="yes"/>
      <point x="331" y="400"/>
      <point x="309" y="405"/>
      <point x="295" y="405" type="curve" smooth="yes"/>
      <point x="286" y="405"/>
      <point x="276" y="404"/>
      <point x="276" y="400" type="curve" smooth="yes"/>
      <point x="276" y="396"/>
      <point x="284" y="392"/>
      <point x="305" y="390" type="curve" smooth="yes"/>
      <point x="340" y="387"/>
      <point x="351" y="380"/>
      <point x="351" y="365" type="curve" smooth="yes"/>
      <point x="351" y="357"/>
      <point x="347" y="346"/>
      <point x="342" y="331" type="curve" smooth="yes"/>
      <point x="240" y="3" type="line"/>
      <point x="239" y="1"/>
      <point x="239" y="0"/>
      <point x="238" y="0" type="curve" smooth="yes"/>
      <point x="237" y="0"/>
      <point x="236" y="1"/>
      <point x="235" y="3" type="curve" smooth="yes"/>
      <point x="122" y="340" type="line" smooth="yes"/>
      <point x="118" y="351"/>
      <point x="115" y="360"/>
      <point x="115" y="366" type="curve" smooth="yes"/>
      <point x="115" y="383"/>
      <point x="131" y="388"/>
      <point x="168" y="391" type="curve" smooth="yes"/>
      <point x="180" y="392"/>
      <point x="192" y="394"/>
      <point x="192" y="400" type="curve" smooth="yes"/>
      <point x="192" y="404"/>
      <point x="179" y="405"/>
      <point x="172" y="405" type="curve" smooth="yes"/>
      <point x="140" y="405"/>
      <point x="139" y="400"/>
      <point x="110" y="400" type="curve" smooth="yes"/>
      <point x="81" y="400"/>
      <point x="82" y="405"/>
      <point x="50" y="405" type="curve" smooth="yes"/>
      <point x="43" y="405"/>
      <point x="30" y="404"/>
      <point x="30" y="400" type="curve" smooth="yes"/>
      <point x="30" y="395"/>
      <point x="37" y="393"/>
      <point x="48" y="391" type="curve" smooth="yes"/>
      <point x="83" y="385"/>
      <point x="97" y="377"/>
      <point x="110" y="339" type="curve" smooth="yes"/>
      <point x="233" y="-15" type="line"/>
      <point x="235" y="-18"/>
      <point x="237" y="-19"/>
    </contour>
  </outline>
</glyph>
<glyph name="x" format="1">
  <advance width="430"/>
  <unicode hex="0078"/>
  <outline>
    <contour>
      <point x="60" y="-4"/>
      <point x="69" y="1"/>
      <point x="99" y="1" type="curve" smooth="yes"/>
      <point x="111" y="1"/>
      <point x="132" y="-1"/>
      <point x="141" y="-1" type="curve" smooth="yes"/>
      <point x="145" y="-1"/>
      <point x="159" y="-1"/>
      <point x="159" y="3" type="curve" smooth="yes"/>
      <point x="159" y="7"/>
      <point x="141" y="6"/>
      <point x="124" y="9" type="curve" smooth="yes"/>
      <point x="108" y="12"/>
      <point x="102" y="17"/>
      <point x="102" y="23" type="curve" smooth="yes"/>
      <point x="101" y="28"/>
      <point x="104" y="33"/>
      <point x="107" y="38" type="curve" smooth="yes"/>
      <point x="219" y="203" type="line"/>
      <point x="220" y="204"/>
      <point x="224" y="204"/>
      <point x="225" y="203" type="curve"/>
      <point x="323" y="45" type="line" smooth="yes"/>
      <point x="329" y="35"/>
      <point x="333" y="27"/>
      <point x="333" y="22" type="curve" smooth="yes"/>
      <point x="333" y="12"/>
      <point x="324" y="8"/>
      <point x="300" y="8" type="curve" smooth="yes"/>
      <point x="284" y="8"/>
      <point x="275" y="6"/>
      <point x="275" y="3" type="curve" smooth="yes"/>
      <point x="275" y="1"/>
      <point x="279" y="-2"/>
      <point x="291" y="-2" type="curve" smooth="yes"/>
      <point x="306" y="-2"/>
      <point x="310" y="0"/>
      <point x="326" y="0" type="curve" smooth="yes"/>
      <point x="360" y="0"/>
      <point x="369" y="-4"/>
      <point x="397" y="-4" type="curve" smooth="yes"/>
      <point x="402" y="-4"/>
      <point x="410" y="-4"/>
      <point x="410" y="0" type="curve" smooth="yes"/>
      <point x="410" y="4"/>
      <point x="398" y="5"/>
      <point x="387" y="7" type="curve" smooth="yes"/>
      <point x="357" y="12"/>
      <point x="340" y="39"/>
      <point x="324" y="65" type="curve" smooth="yes"/>
      <point x="234" y="208" type="line"/>
      <point x="230" y="213"/>
      <point x="231" y="218"/>
      <point x="233" y="221" type="curve" smooth="yes"/>
      <point x="313" y="345" type="line" smooth="yes"/>
      <point x="334" y="378"/>
      <point x="348" y="393"/>
      <point x="376" y="393" type="curve" smooth="yes"/>
      <point x="387" y="393"/>
      <point x="397" y="395"/>
      <point x="397" y="398" type="curve" smooth="yes"/>
      <point x="397" y="401"/>
      <point x="387" y="402"/>
      <point x="381" y="402" type="curve" smooth="yes"/>
      <point x="366" y="402"/>
      <point x="359" y="398"/>
      <point x="328" y="398" type="curve" smooth="yes"/>
      <point x="315" y="398"/>
      <point x="295" y="401"/>
      <point x="287" y="401" type="curve" smooth="yes"/>
      <point x="283" y="401"/>
      <point x="268" y="401"/>
      <point x="268" y="397" type="curve" smooth="yes"/>
      <point x="268" y="394"/>
      <point x="281" y="392"/>
      <point x="291" y="392" type="curve" smooth="yes"/>
      <point x="310" y="392"/>
      <point x="316" y="386"/>
      <point x="316" y="377" type="curve" smooth="yes"/>
      <point x="316" y="370"/>
      <point x="310" y="359"/>
      <point x="306" y="352" type="curve" smooth="yes"/>
      <point x="228" y="234" type="line"/>
      <point x="225" y="230"/>
      <point x="222" y="229"/>
      <point x="219" y="234" type="curve" smooth="yes"/>
      <point x="146" y="344" type="line" smooth="yes"/>
      <point x="136" y="359"/>
      <point x="131" y="370"/>
      <point x="131" y="377" type="curve" smooth="yes"/>
      <point x="131" y="386"/>
      <point x="141" y="389"/>
      <point x="159" y="392" type="curve" smooth="yes"/>
      <point x="173" y="394"/>
      <point x="186" y="394"/>
      <point x="186" y="397" type="curve" smooth="yes"/>
      <point x="186" y="400"/>
      <point x="171" y="400"/>
      <point x="168" y="400" type="curve" smooth="yes"/>
      <point x="151" y="400"/>
      <point x="151" y="399"/>
      <point x="133" y="399" type="curve" smooth="yes"/>
      <point x="96" y="399"/>
      <point x="103" y="404"/>
      <point x="65" y="404" type="curve" smooth="yes"/>
      <point x="61" y="404"/>
      <point x="47" y="404"/>
      <point x="47" y="400" type="curve" smooth="yes"/>
      <point x="47" y="397"/>
      <point x="60" y="397"/>
      <point x="78" y="395" type="curve" smooth="yes"/>
      <point x="97" y="393"/>
      <point x="108" y="382"/>
      <point x="125" y="357" type="curve" smooth="yes"/>
      <point x="210" y="228" type="line" smooth="yes"/>
      <point x="215" y="220"/>
      <point x="216" y="215"/>
      <point x="209" y="205" type="curve" smooth="yes"/>
      <point x="114" y="64" type="line" smooth="yes"/>
      <point x="83" y="18"/>
      <point x="65" y="8"/>
      <point x="47" y="6" type="curve" smooth="yes"/>
      <point x="36" y="5"/>
      <point x="29" y="4"/>
      <point x="29" y="0" type="curve" smooth="yes"/>
      <point x="29" y="-4"/>
      <point x="39" y="-4"/>
      <point x="45" y="-4" type="curve" smooth="yes"/>
    </contour>
  </outline>
</glyph>
<glyph name="y" format="1">
  <advance width="438"/>
  <unicode hex="0079"/>
  <outline>
    <contour>
      <point x="119" y="-285" type="curve" smooth="yes"/>
      <point x="132" y="-285"/>
      <point x="149" y="-271"/>
      <point x="159" y="-244" type="curve"/>
      <point x="343" y="327" type="line"/>
      <point x="359" y="379"/>
      <point x="367" y="390"/>
      <point x="403" y="392" type="curve" smooth="yes"/>
      <point x="418" y="393"/>
      <point x="426" y="396"/>
      <point x="426" y="401" type="curve" smooth="yes"/>
      <point x="426" y="405"/>
      <point x="417" y="405"/>
      <point x="407" y="405" type="curve" smooth="yes"/>
      <point x="389" y="405"/>
      <point x="386" y="400"/>
      <point x="353" y="400" type="curve" smooth="yes"/>
      <point x="321" y="400"/>
      <point x="299" y="405"/>
      <point x="285" y="405" type="curve" smooth="yes"/>
      <point x="276" y="405"/>
      <point x="266" y="404"/>
      <point x="266" y="400" type="curve" smooth="yes"/>
      <point x="266" y="396"/>
      <point x="274" y="392"/>
      <point x="295" y="390" type="curve" smooth="yes"/>
      <point x="330" y="387"/>
      <point x="341" y="380"/>
      <point x="341" y="365" type="curve" smooth="yes"/>
      <point x="340" y="357"/>
      <point x="337" y="346"/>
      <point x="332" y="331" type="curve" smooth="yes"/>
      <point x="230" y="3" type="line" smooth="yes"/>
      <point x="229" y="1"/>
      <point x="228" y="0"/>
      <point x="227" y="0" type="curve" smooth="yes"/>
      <point x="226" y="0"/>
      <point x="225" y="1"/>
      <point x="225" y="3" type="curve" smooth="yes"/>
      <point x="112" y="340" type="line" smooth="yes"/>
      <point x="108" y="351"/>
      <point x="105" y="360"/>
      <point x="105" y="366" type="curve" smooth="yes"/>
      <point x="105" y="383"/>
      <point x="121" y="388"/>
      <point x="158" y="391" type="curve" smooth="yes"/>
      <point x="170" y="392"/>
      <point x="182" y="394"/>
      <point x="182" y="400" type="curve" smooth="yes"/>
      <point x="182" y="404"/>
      <point x="169" y="405"/>
      <point x="162" y="405" type="curve" smooth="yes"/>
      <point x="130" y="405"/>
      <point x="129" y="400"/>
      <point x="100" y="400" type="curve" smooth="yes"/>
      <point x="71" y="400"/>
      <point x="72" y="405"/>
      <point x="40" y="405" type="curve" smooth="yes"/>
      <point x="33" y="405"/>
      <point x="20" y="404"/>
      <point x="20" y="400" type="curve" smooth="yes"/>
      <point x="20" y="395"/>
      <point x="27" y="393"/>
      <point x="38" y="391" type="curve" smooth="yes"/>
      <point x="73" y="385"/>
      <point x="87" y="377"/>
      <point x="100" y="339" type="curve"/>
      <point x="216" y="0" type="line"/>
      <point x="217" y="-2"/>
      <point x="220" y="-9"/>
      <point x="220" y="-19" type="curve" smooth="yes"/>
      <point x="220" y="-24"/>
      <point x="219" y="-31"/>
      <point x="216" y="-40" type="curve" smooth="yes"/>
      <point x="149" y="-236" type="line"/>
      <point x="144" y="-249"/>
      <point x="139" y="-252"/>
      <point x="131" y="-252" type="curve" smooth="yes"/>
      <point x="125" y="-252"/>
      <point x="116" y="-249"/>
      <point x="107" y="-249" type="curve" smooth="yes"/>
      <point x="96" y="-249"/>
      <point x="89" y="-258"/>
      <point x="89" y="-268" type="curve" smooth="yes"/>
      <point x="89" y="-280"/>
      <point x="103" y="-285"/>
    </contour>
  </outline>
</glyph>
<glyph name="z" format="1">
  <advance width="377"/>
  <unicode hex="007A"/>
  <outline>
    <contour>
      <point x="59" y="-5" type="curve" smooth="yes"/>
      <point x="76" y="-5"/>
      <point x="111" y="0"/>
      <point x="139" y="0" type="curve" smooth="yes"/>
      <point x="258" y="0"/>
      <point x="279" y="-5"/>
      <point x="308" y="-5" type="curve" smooth="yes"/>
      <point x="316" y="-5"/>
      <point x="322" y="0"/>
      <point x="324" y="9" type="curve" smooth="yes"/>
      <point x="328" y="25"/>
      <point x="354" y="114"/>
      <point x="354" y="122" type="curve" smooth="yes"/>
      <point x="354" y="131"/>
      <point x="344" y="136"/>
      <point x="338" y="121" type="curve" smooth="yes"/>
      <point x="330" y="100"/>
      <point x="319" y="47"/>
      <point x="310" y="31" type="curve" smooth="yes"/>
      <point x="301" y="16"/>
      <point x="293" y="8"/>
      <point x="254" y="8" type="curve" smooth="yes"/>
      <point x="75" y="8" type="line" smooth="yes"/>
      <point x="66" y="8"/>
      <point x="59" y="13"/>
      <point x="66" y="23" type="curve" smooth="yes"/>
      <point x="300" y="343" type="line" smooth="yes"/>
      <point x="314" y="363"/>
      <point x="324" y="374"/>
      <point x="338" y="391" type="curve"/>
      <point x="341" y="395"/>
      <point x="336" y="403"/>
      <point x="331" y="403" type="curve" smooth="yes"/>
      <point x="308" y="403"/>
      <point x="264" y="402"/>
      <point x="195" y="402" type="curve" smooth="yes"/>
      <point x="186" y="402"/>
      <point x="162" y="401"/>
      <point x="147" y="401" type="curve" smooth="yes"/>
      <point x="129" y="401"/>
      <point x="111" y="405"/>
      <point x="104" y="407" type="curve" smooth="yes"/>
      <point x="97" y="409"/>
      <point x="90" y="413"/>
      <point x="87" y="413" type="curve" smooth="yes"/>
      <point x="78" y="413"/>
      <point x="74" y="408"/>
      <point x="74" y="398" type="curve" smooth="yes"/>
      <point x="74" y="373"/>
      <point x="62" y="323"/>
      <point x="55" y="305" type="curve" smooth="yes"/>
      <point x="52" y="297"/>
      <point x="64" y="291"/>
      <point x="67" y="299" type="curve" smooth="yes"/>
      <point x="74" y="319"/>
      <point x="81" y="350"/>
      <point x="89" y="369" type="curve" smooth="yes"/>
      <point x="93" y="379"/>
      <point x="102" y="393"/>
      <point x="122" y="393" type="curve" smooth="yes"/>
      <point x="304" y="393" type="line" smooth="yes"/>
      <point x="319" y="393"/>
      <point x="316" y="386"/>
      <point x="313" y="382" type="curve" smooth="yes"/>
      <point x="239" y="281"/>
      <point x="153" y="164"/>
      <point x="84" y="70" type="curve" smooth="yes"/>
      <point x="70" y="51"/>
      <point x="45" y="17"/>
      <point x="45" y="12" type="curve" smooth="yes"/>
      <point x="45" y="7"/>
      <point x="54" y="-5"/>
    </contour>
  </outline>
</glyph>
<glyph name="braceleft" format="1">
  <advance width="376"/>
  <unicode hex="007B"/>
  <outline>
    <contour>
      <point x="310" y="-154"/>
      <point x="316" y="-153"/>
      <point x="316" y="-149" type="curve" smooth="yes"/>
      <point x="316" y="-143"/>
      <point x="305" y="-144"/>
      <point x="294" y="-143" type="curve" smooth="yes"/>
      <point x="230" y="-137"/>
      <point x="188" y="-99"/>
      <point x="188" y="-26" type="curve" smooth="yes"/>
      <point x="188" y="42"/>
      <point x="201" y="89"/>
      <point x="201" y="147" type="curve" smooth="yes"/>
      <point x="201" y="215"/>
      <point x="149" y="267"/>
      <point x="85" y="279" type="curve" smooth="yes"/>
      <point x="82" y="280"/>
      <point x="79" y="281"/>
      <point x="83" y="283" type="curve"/>
      <point x="140" y="296"/>
      <point x="201" y="346"/>
      <point x="201" y="414" type="curve" smooth="yes"/>
      <point x="201" y="472"/>
      <point x="188" y="519"/>
      <point x="188" y="587" type="curve" smooth="yes"/>
      <point x="188" y="660"/>
      <point x="230" y="698"/>
      <point x="294" y="704" type="curve" smooth="yes"/>
      <point x="305" y="705"/>
      <point x="316" y="704"/>
      <point x="316" y="710" type="curve" smooth="yes"/>
      <point x="316" y="714"/>
      <point x="310" y="715"/>
      <point x="304" y="715" type="curve" smooth="yes"/>
      <point x="244" y="715"/>
      <point x="178" y="676"/>
      <point x="178" y="582" type="curve" smooth="yes"/>
      <point x="178" y="512"/>
      <point x="192" y="466"/>
      <point x="192" y="404" type="curve" smooth="yes"/>
      <point x="192" y="353"/>
      <point x="131" y="308"/>
      <point x="93" y="295" type="curve" smooth="yes"/>
      <point x="77" y="290"/>
      <point x="71" y="286"/>
      <point x="71" y="282" type="curve" smooth="yes"/>
      <point x="71" y="277"/>
      <point x="82" y="274"/>
      <point x="91" y="271" type="curve" smooth="yes"/>
      <point x="135" y="258"/>
      <point x="192" y="205"/>
      <point x="192" y="148" type="curve" smooth="yes"/>
      <point x="192" y="95"/>
      <point x="178" y="49"/>
      <point x="178" y="-21" type="curve" smooth="yes"/>
      <point x="178" y="-115"/>
      <point x="244" y="-154"/>
      <point x="304" y="-154" type="curve" smooth="yes"/>
    </contour>
  </outline>
</glyph>
